<svg width="1259" height="180" viewBox="0 0 1259 180" fill="none" xmlns="http://www.w3.org/2000/svg">
<g clip-path="url(#clip0_828_237)">
<mask id="mask0_828_237" style="mask-type:luminance" maskUnits="userSpaceOnUse" x="0" y="-1" width="1259" height="181">
<path d="M0.675781 -0.000488281H1258.41V179.676H0.675781V-0.000488281Z" fill="white"/>
</mask>
<g mask="url(#mask0_828_237)">
<path d="M0 1H1259V-1H0V1Z" fill="#E5E4E7"/>
</g>
<mask id="mask1_828_237" style="mask-type:luminance" maskUnits="userSpaceOnUse" x="0" y="35" width="1259" height="145">
<path d="M1258.42 35.9348H0.675781V179.676H1258.42V35.9348Z" fill="white"/>
</mask>
<g mask="url(#mask1_828_237)">
<path d="M1258.42 35.9348H0.675781V179.676H1258.42V35.9348Z" fill="#F2F1F3" fill-opacity="0.35"/>
<path d="M1258.42 41.9242H0.675781V68.8757H1258.42V41.9242Z" fill="#E4D9FB"/>
<path d="M305.379 46.416H75.5427C73.0619 46.416 71.0508 48.4271 71.0508 50.9079V59.8918C71.0508 62.3726 73.0619 64.3837 75.5427 64.3837H305.379C307.86 64.3837 309.871 62.3726 309.871 59.8918V50.9079C309.871 48.4271 307.86 46.416 305.379 46.416Z" fill="#7A40ED"/>
<path d="M1258.42 68.8757H0.675781V95.8272H1258.42V68.8757Z" fill="#F2ECFD"/>
<path d="M175.111 73.3678H76.2888C73.808 73.3678 71.7969 75.3789 71.7969 77.8597V86.8436C71.7969 89.3244 73.808 91.3355 76.2888 91.3355H175.111C177.592 91.3355 179.603 89.3244 179.603 86.8436V77.8597C179.603 75.3789 177.592 73.3678 175.111 73.3678Z" fill="#CAB3F8"/>
<path d="M638.526 100.319H407.941C405.46 100.319 403.449 102.33 403.449 104.811V113.795C403.449 116.276 405.46 118.287 407.941 118.287H638.526C641.007 118.287 643.018 116.276 643.018 113.795V104.811C643.018 102.33 641.007 100.319 638.526 100.319Z" fill="#D7D7DB"/>
<path d="M732.111 127.271H607.086C604.605 127.271 602.594 129.282 602.594 131.763V140.747C602.594 143.228 604.605 145.239 607.086 145.239H732.111C734.592 145.239 736.603 143.228 736.603 140.747V131.763C736.603 129.282 734.592 127.271 732.111 127.271Z" fill="#D7D7DB"/>
</g>
<mask id="mask2_828_237" style="mask-type:luminance" maskUnits="userSpaceOnUse" x="0" y="-1" width="1259" height="37">
<path d="M0.675781 -0.000488281H1258.41V35.9564H0.675781V-0.000488281Z" fill="white"/>
</mask>
<g mask="url(#mask2_828_237)">
<path d="M1258.41 35.2078H0.675781V36.7051H1258.41V35.2078Z" fill="#E5E4E7"/>
</g>
<path d="M22.3737 21.0921C21.8922 21.0921 21.4788 20.9702 21.1338 20.7265C20.7906 20.4809 20.5265 20.127 20.3412 19.6649C20.158 19.2009 20.0664 18.6424 20.0664 17.9892C20.0683 17.3361 20.1609 16.7805 20.3442 16.3223C20.5294 15.8622 20.7936 15.5113 21.1367 15.2695C21.4818 15.0278 21.8941 14.9069 22.3737 14.9069C22.8533 14.9069 23.2657 15.0278 23.6108 15.2695C23.9558 15.5113 24.22 15.8622 24.4033 16.3223C24.5885 16.7824 24.6811 17.3381 24.6811 17.9892C24.6811 18.6443 24.5885 19.2039 24.4033 19.6679C24.22 20.1299 23.9558 20.4828 23.6108 20.7265C23.2676 20.9702 22.8553 21.0921 22.3737 21.0921ZM22.3737 20.1767C22.748 20.1767 23.0434 19.9925 23.2598 19.624C23.4782 19.2536 23.5874 18.7087 23.5874 17.9892C23.5874 17.5135 23.5376 17.1139 23.4382 16.7902C23.3388 16.4666 23.1984 16.2229 23.0171 16.0591C22.8358 15.8934 22.6213 15.8105 22.3737 15.8105C22.0013 15.8105 21.707 15.9958 21.4905 16.3662C21.2741 16.7347 21.165 17.2757 21.163 17.9892C21.1611 18.4669 21.2088 18.8685 21.3063 19.1941C21.4057 19.5197 21.5461 19.7653 21.7274 19.9311C21.9087 20.0948 22.1242 20.1767 22.3737 20.1767ZM29.2322 17.6734L28.2672 17.7787C28.2399 17.6812 28.1921 17.5896 28.1239 17.5038C28.0576 17.418 27.9679 17.3488 27.8548 17.2962C27.7417 17.2435 27.6033 17.2172 27.4396 17.2172C27.2192 17.2172 27.034 17.265 26.8839 17.3605C26.7357 17.456 26.6626 17.5798 26.6646 17.7319C26.6626 17.8625 26.7104 17.9688 26.8079 18.0507C26.9073 18.1325 27.0711 18.1998 27.2992 18.2524L28.0654 18.4162C28.4904 18.5078 28.8062 18.6531 29.0129 18.8519C29.2215 19.0508 29.3268 19.3111 29.3287 19.6328C29.3268 19.9155 29.2439 20.165 29.0802 20.3814C28.9183 20.5959 28.6932 20.7635 28.4046 20.8844C28.1161 21.0053 27.7846 21.0657 27.4103 21.0657C26.8605 21.0657 26.418 20.9507 26.0826 20.7207C25.7473 20.4887 25.5475 20.166 25.4831 19.7527L26.5154 19.6532C26.5622 19.856 26.6617 20.009 26.8137 20.1124C26.9658 20.2157 27.1637 20.2674 27.4074 20.2674C27.6589 20.2674 27.8607 20.2157 28.0127 20.1124C28.1668 20.009 28.2438 19.8813 28.2438 19.7293C28.2438 19.6006 28.1941 19.4943 28.0946 19.4105C27.9971 19.3267 27.8451 19.2623 27.6384 19.2175L26.8722 19.0567C26.4414 18.967 26.1226 18.8159 25.9159 18.6034C25.7093 18.3889 25.6069 18.1179 25.6089 17.7904C25.6069 17.5135 25.682 17.2737 25.834 17.071C25.9881 16.8663 26.2015 16.7083 26.4745 16.5972C26.7494 16.4841 27.0662 16.4276 27.4249 16.4276C27.9513 16.4276 28.3656 16.5397 28.6678 16.7639C28.972 16.9881 29.1601 17.2913 29.2322 17.6734Z" fill="#C3C3C6"/>
<path d="M54.5809 18.9981C54.4035 18.9981 54.2514 18.9357 54.1247 18.8109C53.9979 18.6861 53.9355 18.5341 53.9375 18.3547C53.9355 18.1792 53.9979 18.0291 54.1247 17.9043C54.2514 17.7796 54.4035 17.7172 54.5809 17.7172C54.7524 17.7172 54.9016 17.7796 55.0283 17.9043C55.157 18.0291 55.2223 18.1792 55.2242 18.3547C55.2223 18.4736 55.1911 18.5818 55.1307 18.6793C55.0722 18.7768 54.9942 18.8548 54.8967 18.9133C54.8012 18.9698 54.6959 18.9981 54.5809 18.9981Z" fill="#C3C3C6"/>
<path d="M84.5263 18.9981C84.3489 18.9981 84.1968 18.9357 84.0701 18.8109C83.9434 18.6861 83.881 18.5341 83.8829 18.3547C83.881 18.1792 83.9434 18.0291 84.0701 17.9043C84.1968 17.7796 84.3489 17.7172 84.5263 17.7172C84.6979 17.7172 84.847 17.7796 84.9738 17.9043C85.1024 18.0291 85.1677 18.1792 85.1697 18.3547C85.1677 18.4736 85.1365 18.5818 85.0761 18.6793C85.0176 18.7768 84.9396 18.8548 84.8422 18.9133C84.7466 18.9698 84.6413 18.9981 84.5263 18.9981Z" fill="#C3C3C6"/>
<path d="M114.475 18.9981C114.297 18.9981 114.145 18.9357 114.019 18.8109C113.892 18.6861 113.83 18.5341 113.832 18.3547C113.83 18.1792 113.892 18.0291 114.019 17.9043C114.145 17.7796 114.297 17.7172 114.475 17.7172C114.646 17.7172 114.796 17.7796 114.922 17.9043C115.051 18.0291 115.116 18.1792 115.118 18.3547C115.116 18.4736 115.085 18.5818 115.025 18.6793C114.966 18.7768 114.888 18.8548 114.791 18.9133C114.695 18.9698 114.59 18.9981 114.475 18.9981Z" fill="#C3C3C6"/>
<path d="M144.42 18.9981C144.243 18.9981 144.09 18.9357 143.964 18.8109C143.837 18.6861 143.775 18.5341 143.777 18.3547C143.775 18.1792 143.837 18.0291 143.964 17.9043C144.09 17.7796 144.243 17.7172 144.42 17.7172C144.592 17.7172 144.741 17.7796 144.867 17.9043C144.996 18.0291 145.061 18.1792 145.063 18.3547C145.061 18.4736 145.03 18.5818 144.97 18.6793C144.911 18.7768 144.833 18.8548 144.736 18.9133C144.64 18.9698 144.535 18.9981 144.42 18.9981Z" fill="#C3C3C6"/>
<path d="M173.13 14.9886V20.9778H172.045V16.0443H172.01L170.609 16.9392V15.9449L172.098 14.9886H173.13ZM178.962 17.6732L177.997 17.7785C177.97 17.681 177.922 17.5894 177.854 17.5036C177.787 17.4178 177.698 17.3486 177.585 17.296C177.472 17.2433 177.333 17.217 177.169 17.217C176.949 17.217 176.764 17.2648 176.614 17.3603C176.466 17.4558 176.392 17.5796 176.394 17.7317C176.392 17.8623 176.44 17.9686 176.538 18.0505C176.637 18.1323 176.801 18.1996 177.029 18.2522L177.795 18.416C178.22 18.5076 178.536 18.6529 178.743 18.8517C178.951 19.0506 179.057 19.3109 179.059 19.6326C179.057 19.9153 178.974 20.1648 178.81 20.3812C178.648 20.5957 178.423 20.7633 178.134 20.8842C177.846 21.0051 177.514 21.0655 177.14 21.0655C176.59 21.0655 176.148 20.9505 175.812 20.7205C175.477 20.4885 175.277 20.1658 175.213 19.7525L176.245 19.653C176.292 19.8558 176.391 20.0088 176.543 20.1122C176.696 20.2155 176.893 20.2672 177.137 20.2672C177.389 20.2672 177.59 20.2155 177.743 20.1122C177.897 20.0088 177.974 19.8811 177.974 19.7291C177.974 19.6004 177.924 19.4941 177.824 19.4103C177.727 19.3265 177.575 19.2621 177.368 19.2173L176.602 19.0565C176.171 18.9668 175.852 18.8157 175.646 18.6032C175.439 18.3887 175.337 18.1177 175.339 17.7902C175.337 17.5133 175.412 17.2735 175.564 17.0708C175.718 16.8661 175.931 16.7081 176.204 16.597C176.479 16.4839 176.796 16.4274 177.155 16.4274C177.681 16.4274 178.095 16.5395 178.398 16.7637C178.702 16.9879 178.89 17.2911 178.962 17.6732Z" fill="#C3C3C6"/>
<path d="M204.311 18.9981C204.134 18.9981 203.982 18.9357 203.855 18.8109C203.728 18.6861 203.666 18.5341 203.668 18.3547C203.666 18.1792 203.728 18.0291 203.855 17.9043C203.982 17.7796 204.134 17.7172 204.311 17.7172C204.483 17.7172 204.632 17.7796 204.759 17.9043C204.887 18.0291 204.953 18.1792 204.955 18.3547C204.953 18.4736 204.922 18.5818 204.861 18.6793C204.803 18.7768 204.725 18.8548 204.627 18.9133C204.532 18.9698 204.426 18.9981 204.311 18.9981Z" fill="#C3C3C6"/>
<path d="M234.256 18.9981C234.079 18.9981 233.927 18.9357 233.8 18.8109C233.673 18.6861 233.611 18.5341 233.613 18.3547C233.611 18.1792 233.673 18.0291 233.8 17.9043C233.927 17.7796 234.079 17.7172 234.256 17.7172C234.428 17.7172 234.577 17.7796 234.704 17.9043C234.832 18.0291 234.898 18.1792 234.9 18.3547C234.898 18.4736 234.867 18.5818 234.806 18.6793C234.748 18.7768 234.67 18.8548 234.572 18.9133C234.477 18.9698 234.371 18.9981 234.256 18.9981Z" fill="#C3C3C6"/>
<path d="M264.206 18.9981C264.029 18.9981 263.877 18.9357 263.75 18.8109C263.623 18.6861 263.561 18.5341 263.563 18.3547C263.561 18.1792 263.623 18.0291 263.75 17.9043C263.877 17.7796 264.029 17.7172 264.206 17.7172C264.378 17.7172 264.527 17.7796 264.654 17.9043C264.782 18.0291 264.848 18.1792 264.85 18.3547C264.848 18.4736 264.817 18.5818 264.756 18.6793C264.698 18.7768 264.62 18.8548 264.522 18.9133C264.427 18.9698 264.321 18.9981 264.206 18.9981Z" fill="#C3C3C6"/>
<path d="M294.151 18.9981C293.974 18.9981 293.822 18.9357 293.695 18.8109C293.568 18.6861 293.506 18.5341 293.508 18.3547C293.506 18.1792 293.568 18.0291 293.695 17.9043C293.822 17.7796 293.974 17.7172 294.151 17.7172C294.323 17.7172 294.472 17.7796 294.599 17.9043C294.728 18.0291 294.793 18.1792 294.795 18.3547C294.793 18.4736 294.762 18.5818 294.701 18.6793C294.643 18.7768 294.565 18.8548 294.467 18.9133C294.372 18.9698 294.266 18.9981 294.151 18.9981Z" fill="#C3C3C6"/>
<path d="M319.805 20.978V20.1943L321.885 18.1559C322.083 17.9551 322.249 17.7767 322.382 17.6208C322.514 17.4648 322.614 17.3137 322.68 17.1675C322.746 17.0213 322.779 16.8653 322.779 16.6996C322.779 16.5105 322.737 16.3486 322.651 16.2141C322.565 16.0776 322.447 15.9724 322.297 15.8983C322.147 15.8242 321.976 15.7872 321.785 15.7872C321.588 15.7872 321.416 15.8281 321.268 15.91C321.119 15.9899 321.004 16.104 320.922 16.2521C320.843 16.4003 320.803 16.5767 320.803 16.7815H319.77C319.77 16.4013 319.857 16.0708 320.031 15.7901C320.204 15.5093 320.443 15.2919 320.747 15.1379C321.053 14.9839 321.404 14.9069 321.8 14.9069C322.201 14.9069 322.554 14.982 322.858 15.1321C323.163 15.2822 323.398 15.4879 323.566 15.7491C323.736 16.0104 323.821 16.3087 323.821 16.644C323.821 16.8682 323.778 17.0885 323.692 17.3049C323.606 17.5213 323.455 17.7611 323.239 18.0243C323.024 18.2875 322.723 18.6063 322.335 18.9806L321.303 20.0305V20.0714H323.911V20.978H319.805ZM328.69 17.6734L327.725 17.7787C327.698 17.6812 327.65 17.5896 327.582 17.5038C327.516 17.418 327.426 17.3488 327.313 17.2962C327.2 17.2435 327.062 17.2172 326.898 17.2172C326.677 17.2172 326.492 17.265 326.342 17.3605C326.194 17.456 326.121 17.5798 326.123 17.7319C326.121 17.8625 326.169 17.9688 326.266 18.0507C326.366 18.1325 326.529 18.1998 326.757 18.2524L327.524 18.4162C327.949 18.5078 328.264 18.6531 328.471 18.8519C328.68 19.0508 328.785 19.3111 328.787 19.6328C328.785 19.9155 328.702 20.165 328.538 20.3814C328.377 20.5959 328.151 20.7635 327.863 20.8844C327.574 21.0053 327.243 21.0657 326.869 21.0657C326.319 21.0657 325.876 20.9507 325.541 20.7207C325.206 20.4887 325.006 20.166 324.941 19.7527L325.974 19.6532C326.02 19.856 326.12 20.009 326.272 20.1124C326.424 20.2157 326.622 20.2674 326.866 20.2674C327.117 20.2674 327.319 20.2157 327.471 20.1124C327.625 20.009 327.702 19.8813 327.702 19.7293C327.702 19.6006 327.652 19.4943 327.553 19.4105C327.455 19.3267 327.303 19.2623 327.097 19.2175L326.33 19.0567C325.9 18.967 325.581 18.8159 325.374 18.6034C325.168 18.3889 325.065 18.1179 325.067 17.7904C325.065 17.5135 325.14 17.2737 325.292 17.071C325.446 16.8663 325.66 16.7083 325.933 16.5972C326.208 16.4841 326.524 16.4276 326.883 16.4276C327.41 16.4276 327.824 16.5397 328.126 16.7639C328.43 16.9881 328.618 17.2913 328.69 17.6734Z" fill="#C3C3C6"/>
<path d="M354.042 18.9981C353.864 18.9981 353.712 18.9357 353.585 18.8109C353.459 18.6861 353.396 18.5341 353.398 18.3547C353.396 18.1792 353.459 18.0291 353.585 17.9043C353.712 17.7796 353.864 17.7172 354.042 17.7172C354.213 17.7172 354.362 17.7796 354.489 17.9043C354.618 18.0291 354.684 18.1792 354.686 18.3547C354.684 18.4736 354.653 18.5818 354.592 18.6793C354.534 18.7768 354.455 18.8548 354.357 18.9133C354.262 18.9698 354.157 18.9981 354.042 18.9981Z" fill="#C3C3C6"/>
<path d="M383.991 18.9981C383.814 18.9981 383.662 18.9357 383.535 18.8109C383.408 18.6861 383.346 18.5341 383.348 18.3547C383.346 18.1792 383.408 18.0291 383.535 17.9043C383.662 17.7796 383.814 17.7172 383.991 17.7172C384.163 17.7172 384.312 17.7796 384.438 17.9043C384.567 18.0291 384.632 18.1792 384.634 18.3547C384.632 18.4736 384.601 18.5818 384.541 18.6793C384.482 18.7768 384.404 18.8548 384.307 18.9133C384.211 18.9698 384.106 18.9981 383.991 18.9981Z" fill="#C3C3C6"/>
<path d="M413.933 18.9981C413.755 18.9981 413.603 18.9357 413.477 18.8109C413.35 18.6861 413.288 18.5341 413.289 18.3547C413.288 18.1792 413.35 18.0291 413.477 17.9043C413.603 17.7796 413.755 17.7172 413.933 17.7172C414.104 17.7172 414.254 17.7796 414.38 17.9043C414.509 18.0291 414.574 18.1792 414.576 18.3547C414.574 18.4736 414.543 18.5818 414.483 18.6793C414.424 18.7768 414.346 18.8548 414.249 18.9133C414.153 18.9698 414.048 18.9981 413.933 18.9981Z" fill="#C3C3C6"/>
<path d="M443.881 18.9981C443.703 18.9981 443.551 18.9357 443.425 18.8109C443.298 18.6861 443.236 18.5341 443.238 18.3547C443.236 18.1792 443.298 18.0291 443.425 17.9043C443.551 17.7796 443.703 17.7172 443.881 17.7172C444.052 17.7172 444.202 17.7796 444.328 17.9043C444.457 18.0291 444.522 18.1792 444.524 18.3547C444.522 18.4736 444.491 18.5818 444.431 18.6793C444.372 18.7768 444.294 18.8548 444.197 18.9133C444.101 18.9698 443.996 18.9981 443.881 18.9981Z" fill="#C3C3C6"/>
<path d="M471.563 21.0599C471.142 21.0599 470.768 20.9878 470.44 20.8435C470.115 20.6992 469.858 20.4984 469.668 20.2411C469.479 19.9837 469.379 19.6864 469.367 19.3491H470.467C470.477 19.5109 470.53 19.6523 470.628 19.7731C470.725 19.8921 470.855 19.9847 471.017 20.051C471.178 20.1172 471.36 20.1504 471.561 20.1504C471.775 20.1504 471.965 20.1134 472.131 20.0393C472.296 19.9632 472.426 19.858 472.52 19.7234C472.613 19.5889 472.659 19.4339 472.657 19.2584C472.659 19.0771 472.612 18.9173 472.517 18.7788C472.421 18.6404 472.283 18.5322 472.102 18.4542C471.922 18.3762 471.706 18.3373 471.452 18.3373H470.923V17.5009H471.452C471.661 17.5009 471.843 17.4648 471.999 17.3927C472.157 17.3205 472.281 17.2191 472.371 17.0885C472.46 16.9559 472.504 16.8029 472.502 16.6294C472.504 16.4598 472.466 16.3126 472.388 16.1878C472.312 16.0611 472.204 15.9626 472.064 15.8924C471.925 15.8222 471.762 15.7872 471.575 15.7872C471.392 15.7872 471.222 15.8203 471.066 15.8866C470.91 15.9529 470.785 16.0474 470.689 16.1703C470.593 16.2911 470.543 16.4354 470.537 16.6031H469.493C469.501 16.2677 469.597 15.9733 469.782 15.7199C469.97 15.4645 470.219 15.2656 470.531 15.1233C470.843 14.979 471.193 14.9069 471.581 14.9069C471.981 14.9069 472.328 14.982 472.622 15.1321C472.918 15.2803 473.147 15.4801 473.309 15.7316C473.471 15.9831 473.552 16.2609 473.552 16.565C473.554 16.9023 473.455 17.185 473.254 17.4131C473.055 17.6412 472.794 17.7904 472.47 17.8606V17.9074C472.891 17.9658 473.214 18.1218 473.438 18.3753C473.664 18.6268 473.776 18.9397 473.774 19.314C473.774 19.6493 473.679 19.9496 473.488 20.2147C473.299 20.4779 473.037 20.6846 472.704 20.8347C472.373 20.9848 471.992 21.0599 471.563 21.0599ZM478.422 17.6734L477.457 17.7787C477.43 17.6812 477.382 17.5896 477.314 17.5038C477.247 17.418 477.158 17.3488 477.045 17.2962C476.931 17.2435 476.793 17.2172 476.629 17.2172C476.409 17.2172 476.224 17.265 476.074 17.3605C475.925 17.456 475.852 17.5798 475.854 17.7319C475.852 17.8625 475.9 17.9688 475.998 18.0507C476.097 18.1325 476.261 18.1998 476.489 18.2524L477.255 18.4162C477.68 18.5078 477.996 18.6531 478.203 18.8519C478.411 19.0508 478.516 19.3111 478.518 19.6328C478.516 19.9155 478.434 20.165 478.27 20.3814C478.108 20.5959 477.883 20.7635 477.594 20.8844C477.306 21.0053 476.974 21.0657 476.6 21.0657C476.05 21.0657 475.608 20.9507 475.272 20.7207C474.937 20.4887 474.737 20.166 474.673 19.7527L475.705 19.6532C475.752 19.856 475.851 20.009 476.003 20.1124C476.156 20.2157 476.353 20.2674 476.597 20.2674C476.849 20.2674 477.05 20.2157 477.202 20.1124C477.356 20.009 477.433 19.8813 477.433 19.7293C477.433 19.6006 477.384 19.4943 477.284 19.4105C477.187 19.3267 477.035 19.2623 476.828 19.2175L476.062 19.0567C475.631 18.967 475.312 18.8159 475.106 18.6034C474.899 18.3889 474.797 18.1179 474.799 17.7904C474.797 17.5135 474.872 17.2737 475.024 17.071C475.178 16.8663 475.391 16.7083 475.664 16.5972C475.939 16.4841 476.256 16.4276 476.615 16.4276C477.141 16.4276 477.555 16.5397 477.858 16.7639C478.162 16.9881 478.35 17.2913 478.422 17.6734Z" fill="#C3C3C6"/>
<path d="M503.772 18.9981C503.595 18.9981 503.443 18.9357 503.316 18.8109C503.189 18.6861 503.127 18.5341 503.129 18.3547C503.127 18.1792 503.189 18.0291 503.316 17.9043C503.443 17.7796 503.595 17.7172 503.772 17.7172C503.944 17.7172 504.093 17.7796 504.22 17.9043C504.348 18.0291 504.414 18.1792 504.416 18.3547C504.414 18.4736 504.382 18.5818 504.322 18.6793C504.264 18.7768 504.186 18.8548 504.088 18.9133C503.993 18.9698 503.887 18.9981 503.772 18.9981Z" fill="#C3C3C6"/>
<path d="M533.717 18.9981C533.54 18.9981 533.388 18.9357 533.261 18.8109C533.134 18.6861 533.072 18.5341 533.074 18.3547C533.072 18.1792 533.134 18.0291 533.261 17.9043C533.388 17.7796 533.54 17.7172 533.717 17.7172C533.889 17.7172 534.038 17.7796 534.165 17.9043C534.293 18.0291 534.359 18.1792 534.361 18.3547C534.359 18.4736 534.327 18.5818 534.267 18.6793C534.209 18.7768 534.131 18.8548 534.033 18.9133C533.938 18.9698 533.832 18.9981 533.717 18.9981Z" fill="#C3C3C6"/>
<path d="M563.666 18.9981C563.489 18.9981 563.337 18.9357 563.21 18.8109C563.083 18.6861 563.021 18.5341 563.023 18.3547C563.021 18.1792 563.083 18.0291 563.21 17.9043C563.337 17.7796 563.489 17.7172 563.666 17.7172C563.838 17.7172 563.987 17.7796 564.114 17.9043C564.242 18.0291 564.309 18.1792 564.311 18.3547C564.309 18.4736 564.278 18.5818 564.217 18.6793C564.159 18.7768 564.081 18.8548 563.983 18.9133C563.888 18.9698 563.781 18.9981 563.666 18.9981Z" fill="#C3C3C6"/>
<path d="M593.612 18.9981C593.435 18.9981 593.283 18.9357 593.156 18.8109C593.029 18.6861 592.967 18.5341 592.969 18.3547C592.967 18.1792 593.029 18.0291 593.156 17.9043C593.283 17.7796 593.435 17.7172 593.612 17.7172C593.784 17.7172 593.933 17.7796 594.06 17.9043C594.188 18.0291 594.254 18.1792 594.256 18.3547C594.254 18.4736 594.223 18.5818 594.162 18.6793C594.104 18.7768 594.026 18.8548 593.928 18.9133C593.833 18.9698 593.727 18.9981 593.612 18.9981Z" fill="#C3C3C6"/>
<path d="M618.965 19.8665V19.0038L621.506 14.9886H622.225V16.2168H621.787L620.076 18.9278V18.9746H623.623V19.8665H618.965ZM621.822 20.9778V19.6033L621.833 19.2173V14.9886H622.857V20.9778H621.822ZM628.144 17.6732L627.179 17.7785C627.151 17.681 627.103 17.5894 627.035 17.5036C626.969 17.4178 626.879 17.3486 626.766 17.296C626.653 17.2433 626.515 17.217 626.351 17.217C626.131 17.217 625.945 17.2648 625.795 17.3603C625.647 17.4558 625.574 17.5796 625.576 17.7317C625.574 17.8623 625.622 17.9686 625.719 18.0505C625.819 18.1323 625.982 18.1996 626.211 18.2522L626.977 18.416C627.402 18.5076 627.718 18.6529 627.924 18.8517C628.133 19.0506 628.238 19.3109 628.24 19.6326C628.238 19.9153 628.155 20.1648 627.992 20.3812C627.83 20.5957 627.605 20.7633 627.316 20.8842C627.027 21.0051 626.696 21.0655 626.322 21.0655C625.772 21.0655 625.329 20.9505 624.994 20.7205C624.659 20.4885 624.459 20.1658 624.394 19.7525L625.427 19.653C625.474 19.8558 625.573 20.0088 625.725 20.1122C625.877 20.2155 626.075 20.2672 626.319 20.2672C626.57 20.2672 626.772 20.2155 626.924 20.1122C627.078 20.0088 627.155 19.8811 627.155 19.7291C627.155 19.6004 627.105 19.4941 627.006 19.4103C626.909 19.3265 626.756 19.2621 626.55 19.2173L625.784 19.0565C625.353 18.9668 625.034 18.8157 624.827 18.6032C624.621 18.3887 624.518 18.1177 624.52 17.7902C624.518 17.5133 624.593 17.2735 624.745 17.0708C624.899 16.8661 625.113 16.7081 625.386 16.597C625.661 16.4839 625.978 16.4274 626.336 16.4274C626.863 16.4274 627.277 16.5395 627.579 16.7637C627.883 16.9879 628.071 17.2911 628.144 17.6732Z" fill="#C3C3C6"/>
<path d="M653.503 18.9981C653.325 18.9981 653.173 18.9357 653.046 18.8109C652.92 18.6861 652.857 18.5341 652.859 18.3547C652.857 18.1792 652.92 18.0291 653.046 17.9043C653.173 17.7796 653.325 17.7172 653.503 17.7172C653.674 17.7172 653.823 17.7796 653.95 17.9043C654.079 18.0291 654.144 18.1792 654.146 18.3547C654.144 18.4736 654.113 18.5818 654.052 18.6793C653.994 18.7768 653.916 18.8548 653.819 18.9133C653.723 18.9698 653.618 18.9981 653.503 18.9981Z" fill="#C3C3C6"/>
<path d="M683.452 18.9981C683.275 18.9981 683.122 18.9357 682.996 18.8109C682.869 18.6861 682.807 18.5341 682.809 18.3547C682.807 18.1792 682.869 18.0291 682.996 17.9043C683.122 17.7796 683.275 17.7172 683.452 17.7172C683.624 17.7172 683.773 17.7796 683.899 17.9043C684.028 18.0291 684.093 18.1792 684.095 18.3547C684.093 18.4736 684.062 18.5818 684.002 18.6793C683.943 18.7768 683.865 18.8548 683.768 18.9133C683.672 18.9698 683.567 18.9981 683.452 18.9981Z" fill="#C3C3C6"/>
<path d="M713.397 18.9981C713.22 18.9981 713.068 18.9357 712.941 18.8109C712.814 18.6861 712.752 18.5341 712.754 18.3547C712.752 18.1792 712.814 18.0291 712.941 17.9043C713.068 17.7796 713.22 17.7172 713.397 17.7172C713.569 17.7172 713.718 17.7796 713.844 17.9043C713.973 18.0291 714.038 18.1792 714.04 18.3547C714.038 18.4736 714.007 18.5818 713.947 18.6793C713.888 18.7768 713.81 18.8548 713.713 18.9133C713.617 18.9698 713.512 18.9981 713.397 18.9981Z" fill="#C3C3C6"/>
<path d="M743.342 18.9981C743.165 18.9981 743.013 18.9357 742.886 18.8109C742.759 18.6861 742.697 18.5341 742.699 18.3547C742.697 18.1792 742.759 18.0291 742.886 17.9043C743.013 17.7796 743.165 17.7172 743.342 17.7172C743.514 17.7172 743.663 17.7796 743.79 17.9043C743.918 18.0291 743.983 18.1792 743.985 18.3547C743.983 18.4736 743.952 18.5818 743.892 18.6793C743.833 18.7768 743.755 18.8548 743.658 18.9133C743.562 18.9698 743.457 18.9981 743.342 18.9981Z" fill="#C3C3C6"/>
<path d="M771.016 21.0597C770.626 21.0597 770.277 20.9866 769.969 20.8404C769.661 20.6922 769.416 20.4894 769.235 20.2321C769.056 19.9747 768.96 19.6803 768.949 19.3489H770.001C770.021 19.5946 770.127 19.7954 770.32 19.9513C770.513 20.1054 770.745 20.1824 771.016 20.1824C771.229 20.1824 771.418 20.1336 771.583 20.0361C771.749 19.9387 771.88 19.8032 771.975 19.6296C772.071 19.4561 772.118 19.2582 772.116 19.036C772.118 18.8098 772.07 18.609 771.972 18.4336C771.875 18.2581 771.741 18.1206 771.572 18.0212C771.402 17.9198 771.207 17.8691 770.987 17.8691C770.807 17.8672 770.631 17.9003 770.458 17.9686C770.284 18.0368 770.147 18.1265 770.045 18.2376L769.065 18.0768L769.378 14.9886H772.853V15.8952H770.276L770.104 17.4831H770.139C770.25 17.3525 770.407 17.2443 770.61 17.1585C770.812 17.0708 771.035 17.0269 771.276 17.0269C771.639 17.0269 771.963 17.1127 772.247 17.2843C772.532 17.4539 772.756 17.6878 772.92 17.9861C773.084 18.2844 773.166 18.6256 773.166 19.0097C773.166 19.4054 773.074 19.7583 772.891 20.0683C772.709 20.3763 772.457 20.6191 772.133 20.7965C771.812 20.972 771.439 21.0597 771.016 21.0597ZM777.883 17.6732L776.918 17.7785C776.891 17.681 776.843 17.5894 776.775 17.5036C776.709 17.4178 776.619 17.3486 776.506 17.296C776.393 17.2433 776.254 17.217 776.091 17.217C775.87 17.217 775.685 17.2648 775.535 17.3603C775.387 17.4558 775.314 17.5796 775.316 17.7317C775.314 17.8623 775.362 17.9686 775.459 18.0505C775.558 18.1323 775.722 18.1996 775.95 18.2522L776.717 18.416C777.142 18.5076 777.457 18.6529 777.664 18.8517C777.873 19.0506 777.978 19.3109 777.98 19.6326C777.978 19.9153 777.895 20.1648 777.731 20.3812C777.569 20.5957 777.344 20.7633 777.056 20.8842C776.767 21.0051 776.436 21.0655 776.061 21.0655C775.512 21.0655 775.069 20.9505 774.734 20.7205C774.398 20.4885 774.199 20.1658 774.134 19.7525L775.167 19.653C775.213 19.8558 775.313 20.0088 775.465 20.1122C775.617 20.2155 775.815 20.2672 776.059 20.2672C776.31 20.2672 776.512 20.2155 776.664 20.1122C776.818 20.0088 776.895 19.8811 776.895 19.7291C776.895 19.6004 776.845 19.4941 776.746 19.4103C776.648 19.3265 776.496 19.2621 776.29 19.2173L775.523 19.0565C775.092 18.9668 774.774 18.8157 774.567 18.6032C774.36 18.3887 774.258 18.1177 774.26 17.7902C774.258 17.5133 774.333 17.2735 774.485 17.0708C774.639 16.8661 774.853 16.7081 775.126 16.597C775.401 16.4839 775.717 16.4274 776.076 16.4274C776.602 16.4274 777.017 16.5395 777.319 16.7637C777.623 16.9879 777.811 17.2911 777.883 17.6732Z" fill="#C3C3C6"/>
<path d="M803.233 18.9981C803.056 18.9981 802.904 18.9357 802.777 18.8109C802.65 18.6861 802.588 18.5341 802.59 18.3547C802.588 18.1792 802.65 18.0291 802.777 17.9043C802.904 17.7796 803.056 17.7172 803.233 17.7172C803.405 17.7172 803.554 17.7796 803.681 17.9043C803.809 18.0291 803.875 18.1792 803.877 18.3547C803.875 18.4736 803.843 18.5818 803.783 18.6793C803.724 18.7768 803.646 18.8548 803.549 18.9133C803.453 18.9698 803.348 18.9981 803.233 18.9981Z" fill="#C3C3C6"/>
<path d="M833.178 18.9981C833.001 18.9981 832.849 18.9357 832.722 18.8109C832.596 18.6861 832.533 18.5341 832.535 18.3547C832.533 18.1792 832.596 18.0291 832.722 17.9043C832.849 17.7796 833.001 17.7172 833.178 17.7172C833.35 17.7172 833.499 17.7796 833.626 17.9043C833.755 18.0291 833.82 18.1792 833.822 18.3547C833.82 18.4736 833.789 18.5818 833.728 18.6793C833.67 18.7768 833.592 18.8548 833.494 18.9133C833.399 18.9698 833.293 18.9981 833.178 18.9981Z" fill="#C3C3C6"/>
<path d="M863.127 18.9981C862.95 18.9981 862.798 18.9357 862.671 18.8109C862.545 18.6861 862.482 18.5341 862.484 18.3547C862.482 18.1792 862.545 18.0291 862.671 17.9044C862.798 17.7796 862.95 17.7172 863.127 17.7172C863.299 17.7172 863.448 17.7796 863.575 17.9044C863.704 18.0291 863.769 18.1792 863.771 18.3547C863.769 18.4736 863.738 18.5818 863.677 18.6793C863.619 18.7768 863.541 18.8548 863.443 18.9133C863.348 18.9698 863.243 18.9981 863.127 18.9981Z" fill="#C3C3C6"/>
<path d="M893.074 18.9981C892.896 18.9981 892.744 18.9357 892.617 18.8109C892.491 18.6861 892.428 18.5341 892.43 18.3547C892.428 18.1792 892.491 18.0291 892.617 17.9044C892.744 17.7796 892.896 17.7172 893.074 17.7172C893.245 17.7172 893.394 17.7796 893.521 17.9044C893.65 18.0291 893.715 18.1792 893.717 18.3547C893.715 18.4736 893.684 18.5818 893.623 18.6793C893.565 18.7768 893.487 18.8548 893.389 18.9133C893.294 18.9698 893.189 18.9981 893.074 18.9981Z" fill="#C3C3C6"/>
<path d="M920.814 21.0599C920.527 21.058 920.247 21.0082 919.974 20.9108C919.701 20.8113 919.456 20.6505 919.237 20.4282C919.019 20.204 918.845 19.9067 918.717 19.5363C918.588 19.1639 918.525 18.7028 918.527 18.153C918.527 17.6403 918.581 17.1831 918.69 16.7815C918.8 16.3799 918.957 16.0406 919.161 15.7638C919.366 15.485 919.613 15.2725 919.901 15.1262C920.192 14.98 920.516 14.9069 920.875 14.9069C921.251 14.9069 921.585 14.981 921.875 15.1292C922.168 15.2773 922.403 15.4801 922.583 15.7375C922.762 15.9929 922.873 16.2814 922.916 16.6031H921.849C921.794 16.373 921.682 16.1898 921.513 16.0533C921.345 15.9149 921.132 15.8457 920.875 15.8457C920.46 15.8457 920.14 16.026 919.916 16.3867C919.694 16.7474 919.581 17.2426 919.579 17.8723H919.62C919.716 17.7007 919.84 17.5535 919.992 17.4307C920.144 17.3079 920.315 17.2133 920.507 17.147C920.7 17.0788 920.903 17.0447 921.118 17.0447C921.469 17.0447 921.783 17.1285 922.062 17.2962C922.343 17.4638 922.565 17.6949 922.729 17.9893C922.893 18.2817 922.974 18.617 922.972 18.9953C922.974 19.3891 922.884 19.7429 922.703 20.0568C922.521 20.3688 922.269 20.6144 921.945 20.7938C921.622 20.9731 921.244 21.0619 920.814 21.0599ZM920.808 20.1826C921.02 20.1826 921.21 20.1309 921.378 20.0276C921.546 19.9243 921.678 19.7849 921.776 19.6094C921.873 19.4339 921.921 19.237 921.919 19.0187C921.921 18.8042 921.874 18.6102 921.779 18.4367C921.685 18.2632 921.555 18.1257 921.39 18.0244C921.224 17.923 921.035 17.8723 920.822 17.8723C920.664 17.8723 920.517 17.9025 920.381 17.9629C920.244 18.0234 920.125 18.1072 920.024 18.2144C919.923 18.3197 919.843 18.4425 919.784 18.5829C919.728 18.7213 919.698 18.8695 919.696 19.0274C919.698 19.236 919.747 19.4281 919.843 19.6035C919.938 19.779 920.07 19.9194 920.237 20.0247C920.405 20.1299 920.595 20.1826 920.808 20.1826ZM927.614 17.6734L926.649 17.7787C926.621 17.6812 926.573 17.5896 926.505 17.5038C926.439 17.418 926.349 17.3488 926.236 17.2962C926.123 17.2435 925.985 17.2172 925.821 17.2172C925.601 17.2172 925.415 17.265 925.265 17.3605C925.117 17.456 925.044 17.5798 925.046 17.7319C925.044 17.8625 925.092 17.9688 925.189 18.0507C925.289 18.1326 925.452 18.1998 925.681 18.2525L926.447 18.4162C926.872 18.5079 927.188 18.6531 927.394 18.852C927.603 19.0508 927.708 19.3111 927.71 19.6328C927.708 19.9155 927.625 20.165 927.462 20.3814C927.3 20.5959 927.075 20.7636 926.786 20.8844C926.497 21.0053 926.166 21.0658 925.792 21.0658C925.242 21.0658 924.799 20.9507 924.464 20.7207C924.129 20.4887 923.929 20.166 923.864 19.7527L924.897 19.6533C924.944 19.856 925.043 20.0091 925.195 20.1124C925.347 20.2157 925.545 20.2674 925.789 20.2674C926.04 20.2674 926.242 20.2157 926.394 20.1124C926.548 20.0091 926.625 19.8814 926.625 19.7293C926.625 19.6006 926.575 19.4944 926.476 19.4105C926.379 19.3267 926.226 19.2624 926.02 19.2175L925.254 19.0567C924.823 18.967 924.504 18.8159 924.297 18.6034C924.091 18.3889 923.988 18.1179 923.99 17.7904C923.988 17.5136 924.063 17.2738 924.215 17.071C924.369 16.8663 924.583 16.7084 924.856 16.5972C925.131 16.4842 925.448 16.4276 925.806 16.4276C926.333 16.4276 926.747 16.5397 927.049 16.7639C927.353 16.9881 927.541 17.2913 927.614 17.6734Z" fill="#C3C3C6"/>
<path d="M952.964 18.9981C952.786 18.9981 952.634 18.9357 952.507 18.8109C952.381 18.6861 952.318 18.5341 952.32 18.3547C952.318 18.1792 952.381 18.0291 952.507 17.9044C952.634 17.7796 952.786 17.7172 952.964 17.7172C953.135 17.7172 953.284 17.7796 953.411 17.9044C953.54 18.0291 953.605 18.1792 953.607 18.3547C953.605 18.4736 953.574 18.5818 953.513 18.6793C953.455 18.7768 953.377 18.8548 953.279 18.9133C953.184 18.9698 953.079 18.9981 952.964 18.9981Z" fill="#C3C3C6"/>
<path d="M982.913 18.9981C982.736 18.9981 982.583 18.9357 982.457 18.8109C982.33 18.6861 982.268 18.5341 982.27 18.3547C982.268 18.1792 982.33 18.0291 982.457 17.9044C982.583 17.7796 982.736 17.7172 982.913 17.7172C983.084 17.7172 983.234 17.7796 983.36 17.9044C983.489 18.0291 983.554 18.1792 983.556 18.3547C983.554 18.4736 983.523 18.5818 983.463 18.6793C983.404 18.7768 983.326 18.8548 983.229 18.9133C983.133 18.9698 983.028 18.9981 982.913 18.9981Z" fill="#C3C3C6"/>
<path d="M1012.86 18.9981C1012.68 18.9981 1012.53 18.9357 1012.4 18.8109C1012.27 18.6861 1012.21 18.5341 1012.21 18.3547C1012.21 18.1792 1012.27 18.0291 1012.4 17.9044C1012.53 17.7796 1012.68 17.7172 1012.86 17.7172C1013.03 17.7172 1013.18 17.7796 1013.3 17.9044C1013.43 18.0291 1013.5 18.1792 1013.5 18.3547C1013.5 18.4736 1013.47 18.5818 1013.41 18.6793C1013.35 18.7768 1013.27 18.8548 1013.17 18.9133C1013.08 18.9698 1012.97 18.9981 1012.86 18.9981Z" fill="#C3C3C6"/>
<path d="M1042.8 18.9981C1042.63 18.9981 1042.47 18.9357 1042.35 18.8109C1042.22 18.6861 1042.16 18.5341 1042.16 18.3547C1042.16 18.1792 1042.22 18.0291 1042.35 17.9044C1042.47 17.7796 1042.63 17.7172 1042.8 17.7172C1042.97 17.7172 1043.12 17.7796 1043.25 17.9044C1043.38 18.0291 1043.44 18.1792 1043.45 18.3547C1043.44 18.4736 1043.41 18.5818 1043.35 18.6793C1043.29 18.7768 1043.22 18.8548 1043.12 18.9133C1043.02 18.9698 1042.92 18.9981 1042.8 18.9981Z" fill="#C3C3C6"/>
<path d="M1068.82 20.9778L1071.37 15.9361V15.8952H1068.42V14.9886H1072.49V15.9156L1069.95 20.9778H1068.82ZM1077.34 17.6732L1076.38 17.7785C1076.35 17.681 1076.3 17.5894 1076.24 17.5036C1076.17 17.4178 1076.08 17.3486 1075.97 17.296C1075.85 17.2433 1075.72 17.217 1075.55 17.217C1075.33 17.217 1075.15 17.2648 1075 17.3603C1074.85 17.4558 1074.77 17.5796 1074.78 17.7317C1074.77 17.8623 1074.82 17.9686 1074.92 18.0505C1075.02 18.1324 1075.18 18.1996 1075.41 18.2523L1076.18 18.416C1076.6 18.5077 1076.92 18.6529 1077.12 18.8518C1077.33 19.0506 1077.44 19.3109 1077.44 19.6326C1077.44 19.9153 1077.36 20.1648 1077.19 20.3812C1077.03 20.5957 1076.8 20.7634 1076.52 20.8842C1076.23 21.0051 1075.9 21.0656 1075.52 21.0656C1074.97 21.0656 1074.53 20.9505 1074.19 20.7205C1073.86 20.4885 1073.66 20.1658 1073.59 19.7525L1074.63 19.6531C1074.67 19.8558 1074.77 20.0089 1074.93 20.1122C1075.08 20.2155 1075.28 20.2672 1075.52 20.2672C1075.77 20.2672 1075.97 20.2155 1076.12 20.1122C1076.28 20.0089 1076.36 19.8812 1076.36 19.7291C1076.36 19.6004 1076.31 19.4942 1076.21 19.4103C1076.11 19.3265 1075.96 19.2622 1075.75 19.2173L1074.98 19.0565C1074.55 18.9668 1074.23 18.8157 1074.03 18.6032C1073.82 18.3887 1073.72 18.1177 1073.72 17.7902C1073.72 17.5134 1073.79 17.2736 1073.95 17.0708C1074.1 16.8661 1074.31 16.7082 1074.59 16.597C1074.86 16.484 1075.18 16.4274 1075.54 16.4274C1076.06 16.4274 1076.48 16.5395 1076.78 16.7637C1077.08 16.9879 1077.27 17.2911 1077.34 17.6732Z" fill="#C3C3C6"/>
<path d="M1102.7 18.9981C1102.52 18.9981 1102.37 18.9357 1102.24 18.8109C1102.11 18.6861 1102.05 18.5341 1102.05 18.3547C1102.05 18.1792 1102.11 18.0291 1102.24 17.9044C1102.37 17.7796 1102.52 17.7172 1102.7 17.7172C1102.87 17.7172 1103.02 17.7796 1103.14 17.9044C1103.27 18.0291 1103.34 18.1792 1103.34 18.3547C1103.34 18.4736 1103.31 18.5818 1103.24 18.6793C1103.19 18.7768 1103.11 18.8548 1103.01 18.9133C1102.92 18.9698 1102.81 18.9981 1102.7 18.9981Z" fill="#C3C3C6"/>
<path d="M1132.64 18.9981C1132.46 18.9981 1132.31 18.9357 1132.18 18.8109C1132.06 18.6861 1132 18.5341 1132 18.3547C1132 18.1792 1132.06 18.0291 1132.18 17.9044C1132.31 17.7796 1132.46 17.7172 1132.64 17.7172C1132.81 17.7172 1132.96 17.7796 1133.09 17.9044C1133.22 18.0291 1133.28 18.1792 1133.28 18.3547C1133.28 18.4736 1133.25 18.5818 1133.19 18.6793C1133.13 18.7768 1133.05 18.8548 1132.96 18.9133C1132.86 18.9698 1132.76 18.9981 1132.64 18.9981Z" fill="#C3C3C6"/>
<path d="M1162.59 18.9981C1162.41 18.9981 1162.26 18.9357 1162.13 18.8109C1162 18.6861 1161.94 18.5341 1161.94 18.3547C1161.94 18.1792 1162 18.0291 1162.13 17.9044C1162.26 17.7796 1162.41 17.7172 1162.59 17.7172C1162.76 17.7172 1162.91 17.7796 1163.03 17.9044C1163.16 18.0291 1163.23 18.1792 1163.23 18.3547C1163.23 18.4736 1163.2 18.5818 1163.14 18.6793C1163.08 18.7768 1163 18.8548 1162.9 18.9133C1162.81 18.9698 1162.7 18.9981 1162.59 18.9981Z" fill="#C3C3C6"/>
<path d="M1192.53 18.9981C1192.36 18.9981 1192.2 18.9357 1192.08 18.8109C1191.95 18.6861 1191.89 18.5341 1191.89 18.3547C1191.89 18.1792 1191.95 18.0291 1192.08 17.9044C1192.2 17.7796 1192.36 17.7172 1192.53 17.7172C1192.71 17.7172 1192.85 17.7796 1192.98 17.9044C1193.11 18.0291 1193.17 18.1792 1193.18 18.3547C1193.17 18.4736 1193.14 18.5818 1193.08 18.6793C1193.02 18.7768 1192.95 18.8548 1192.85 18.9133C1192.75 18.9698 1192.65 18.9981 1192.53 18.9981Z" fill="#C3C3C6"/>
<path d="M1222.48 18.9981C1222.3 18.9981 1222.15 18.9357 1222.02 18.8109C1221.9 18.6861 1221.83 18.5341 1221.84 18.3547C1221.83 18.1792 1221.9 18.0291 1222.02 17.9044C1222.15 17.7796 1222.3 17.7172 1222.48 17.7172C1222.65 17.7172 1222.8 17.7796 1222.93 17.9044C1223.06 18.0291 1223.12 18.1792 1223.12 18.3547C1223.12 18.4736 1223.09 18.5818 1223.03 18.6793C1222.97 18.7768 1222.89 18.8548 1222.8 18.9133C1222.7 18.9698 1222.59 18.9981 1222.48 18.9981Z" fill="#C3C3C6"/>
<path d="M1252.43 18.9981C1252.25 18.9981 1252.1 18.9357 1251.97 18.8109C1251.84 18.6861 1251.78 18.5341 1251.78 18.3547C1251.78 18.1792 1251.84 18.0291 1251.97 17.9044C1252.1 17.7796 1252.25 17.7172 1252.43 17.7172C1252.6 17.7172 1252.75 17.7796 1252.87 17.9044C1253 18.0291 1253.07 18.1792 1253.07 18.3547C1253.07 18.4736 1253.04 18.5818 1252.97 18.6793C1252.92 18.7768 1252.84 18.8548 1252.74 18.9133C1252.65 18.9698 1252.54 18.9981 1252.43 18.9981Z" fill="#C3C3C6"/>
</g>
<defs>
<clipPath id="clip0_828_237">
<rect width="1259" height="180" fill="white"/>
</clipPath>
</defs>
</svg>
