<svg width="180" height="180" viewBox="0 0 180 180" fill="none" xmlns="http://www.w3.org/2000/svg">
<g clip-path="url(#clip0_828_190)">
<mask id="mask0_828_190" style="mask-type:luminance" maskUnits="userSpaceOnUse" x="0" y="0" width="180" height="180">
<path d="M0 0H179.677V179.677H0V0Z" fill="white"/>
</mask>
<g mask="url(#mask0_828_190)">
<mask id="mask1_828_190" style="mask-type:luminance" maskUnits="userSpaceOnUse" x="0" y="0" width="180" height="36">
<path d="M0 0H179.677V35.9353H0V0Z" fill="white"/>
</mask>
<g mask="url(#mask1_828_190)">
<path d="M86.8438 12.7266V23.2078L95.0788 17.9672L86.8438 12.7266Z" fill="#19171C"/>
<path d="M131.763 13.9743V12.477L129.766 14.4734L131.763 16.4698V14.9725C133.415 14.9725 134.757 16.3151 134.757 17.9671C134.757 18.4712 134.633 18.9504 134.408 19.3646L135.137 20.0933C135.526 19.4794 135.756 18.7507 135.756 17.9671C135.756 15.7611 133.969 13.9743 131.763 13.9743ZM131.763 20.9617C130.111 20.9617 128.768 19.6192 128.768 17.9671C128.768 17.463 128.893 16.9839 129.118 16.5696L128.389 15.841C128 16.4548 127.77 17.1835 127.77 17.9671C127.77 20.1732 129.557 21.9599 131.763 21.9599V23.4572L133.759 21.4608L131.763 19.4644V20.9617Z" fill="#97979B"/>
</g>
<mask id="mask2_828_190" style="mask-type:luminance" maskUnits="userSpaceOnUse" x="0" y="0" width="180" height="37">
<path d="M180 0H0V37H180V0Z" fill="white"/>
<path d="M0 0H179.677V35.9353H0V0Z" fill="black"/>
</mask>
<g mask="url(#mask2_828_190)">
<path d="M179.677 35.1867H0V36.684H179.677V35.1867Z" fill="#E5E4E7"/>
</g>
<mask id="mask3_828_190" style="mask-type:luminance" maskUnits="userSpaceOnUse" x="0" y="41" width="180" height="28">
<path d="M179.677 41.9242H0V68.8757H179.677V41.9242Z" fill="white"/>
</mask>
<g mask="url(#mask3_828_190)">
<path d="M179.677 41.9242H0V68.8757H179.677V41.9242Z" fill="#7A40ED"/>
<path d="M12.6803 53.6976L14.9712 55.9835L17.2621 53.6976L17.9658 54.4013L14.9712 57.3959L11.9766 54.4013L12.6803 53.6976Z" fill="white"/>
<path fill-rule="evenodd" clip-rule="evenodd" d="M34.4369 51.4067H32.4405V52.4049H33.4387V53.4031H34.4369V51.4067ZM30.9432 52.4049V51.4067H28.9468V52.4049H30.9432ZM27.4495 51.4067V52.4049H26.4513V53.4031H25.4531V51.4067H27.4495ZM33.4387 54.4013V56.3977H34.4369V54.4013H33.4387ZM33.4387 58.3941V57.3959H34.4369V59.3923H32.4405V58.3941H33.4387ZM30.9432 58.3941H28.9468V59.3923H30.9432V58.3941ZM26.4513 58.3941H27.4495V59.3923H25.4531V57.3959H26.4513V58.3941ZM26.4513 56.3977V54.4013H25.4531V56.3977H26.4513Z" fill="white"/>
<path d="M43.771 52.3321V59.4103H42.7031V52.3321H43.771ZM46.2767 56.2583V59.4103H45.2434V54.1017H46.2353V54.9657H46.3009C46.423 54.6846 46.6143 54.4588 46.8747 54.2883C47.1373 54.1178 47.468 54.0325 47.8666 54.0325C48.2283 54.0325 48.5451 54.1086 48.817 54.2606C49.0889 54.4104 49.2997 54.6339 49.4495 54.9311C49.5992 55.2284 49.6741 55.5959 49.6741 56.0336V59.4103H48.6407V56.1581C48.6407 55.7733 48.5405 55.4726 48.3401 55.256C48.1396 55.0371 47.8643 54.9277 47.514 54.9277C47.2744 54.9277 47.0613 54.9795 46.8747 55.0832C46.6903 55.1869 46.544 55.339 46.4357 55.5394C46.3297 55.7376 46.2767 55.9772 46.2767 56.2583ZM53.5381 54.1017V54.9311H50.6384V54.1017H53.5381ZM51.416 52.8298H52.4494V57.8516C52.4494 58.052 52.4794 58.2029 52.5393 58.3043C52.5992 58.4034 52.6764 58.4714 52.7708 58.5082C52.8676 58.5428 52.9724 58.5601 53.0853 58.5601C53.1683 58.5601 53.2409 58.5543 53.3031 58.5428C53.3653 58.5313 53.4137 58.5221 53.4482 58.5152L53.6349 59.3688C53.5749 59.3919 53.4897 59.4149 53.3791 59.4379C53.2685 59.4633 53.1303 59.4771 52.9644 59.4794C52.6925 59.484 52.439 59.4356 52.204 59.3343C51.969 59.2329 51.7789 59.0762 51.6338 58.8642C51.4886 58.6522 51.416 58.3861 51.416 58.0659V52.8298ZM54.6812 59.4103V54.1017H55.68V54.945H55.7353C55.8321 54.6593 56.0026 54.4346 56.2468 54.271C56.4934 54.1051 56.7722 54.0222 57.0832 54.0222C57.1477 54.0222 57.2238 54.0245 57.3113 54.0291C57.4012 54.0337 57.4715 54.0395 57.5221 54.0464V55.0348C57.4807 55.0233 57.4069 55.0106 57.301 54.9968C57.195 54.9807 57.089 54.9726 56.983 54.9726C56.7388 54.9726 56.521 55.0245 56.3298 55.1281C56.1408 55.2295 55.9911 55.3712 55.8805 55.5532C55.7699 55.733 55.7146 55.938 55.7146 56.1684V59.4103H54.6812ZM60.4625 59.5174C59.9648 59.5174 59.5305 59.4034 59.1595 59.1753C58.7885 58.9472 58.5005 58.6281 58.2955 58.2179C58.0904 57.8078 57.9879 57.3285 57.9879 56.7802C57.9879 56.2295 58.0904 55.7479 58.2955 55.3355C58.5005 54.9231 58.7885 54.6028 59.1595 54.3747C59.5305 54.1466 59.9648 54.0325 60.4625 54.0325C60.9601 54.0325 61.3945 54.1466 61.7654 54.3747C62.1364 54.6028 62.4244 54.9231 62.6295 55.3355C62.8345 55.7479 62.9371 56.2295 62.9371 56.7802C62.9371 57.3285 62.8345 57.8078 62.6295 58.2179C62.4244 58.6281 62.1364 58.9472 61.7654 59.1753C61.3945 59.4034 60.9601 59.5174 60.4625 59.5174ZM60.4659 58.6499C60.7885 58.6499 61.0558 58.5647 61.2677 58.3942C61.4797 58.2237 61.6364 57.9967 61.7378 57.7133C61.8415 57.4299 61.8933 57.1177 61.8933 56.7767C61.8933 56.438 61.8415 56.127 61.7378 55.8436C61.6364 55.5579 61.4797 55.3286 61.2677 55.1558C61.0558 54.983 60.7885 54.8966 60.4659 54.8966C60.141 54.8966 59.8715 54.983 59.6572 55.1558C59.4452 55.3286 59.2874 55.5579 59.1837 55.8436C59.0823 56.127 59.0316 56.438 59.0316 56.7767C59.0316 57.1177 59.0823 57.4299 59.1837 57.7133C59.2874 57.9967 59.4452 58.2237 59.6572 58.3942C59.8715 58.5647 60.141 58.6499 60.4659 58.6499Z" fill="white"/>
</g>
<path d="M179.677 68.8755H0V95.827H179.677V68.8755Z" fill="#F2ECFD"/>
<mask id="mask4_828_190" style="mask-type:luminance" maskUnits="userSpaceOnUse" x="35" y="75" width="13" height="13">
<path d="M47.912 75.8863H35.9336V87.8647H47.912V75.8863Z" fill="white"/>
</mask>
<g mask="url(#mask4_828_190)">
<path fill-rule="evenodd" clip-rule="evenodd" d="M42.094 82.7106L41.7036 84.4675L44.1338 81.8348L41.751 81.0405L42.1414 79.2836L39.7112 81.9163L42.094 82.7106ZM40.9243 83.3728L39.9261 87.8648L45.9153 81.3764L42.9207 80.3782L43.9189 75.8863L37.9297 82.3746L40.9243 83.3728Z" fill="#19171C" fill-opacity="0.35"/>
</g>
<path d="M55.0039 85.8755V78.7974H56.0719V84.9562H59.2792V85.8755H55.0039ZM61.9594 85.993C61.623 85.993 61.3189 85.9308 61.047 85.8064C60.7751 85.6797 60.5597 85.4965 60.4007 85.2569C60.244 85.0173 60.1657 84.7235 60.1657 84.3756C60.1657 84.076 60.2233 83.8295 60.3385 83.636C60.4537 83.4424 60.6092 83.2892 60.8051 83.1763C61.0009 83.0634 61.2198 82.9781 61.4617 82.9205C61.7037 82.8629 61.9502 82.8192 62.2014 82.7892C62.5193 82.7523 62.7774 82.7224 62.9755 82.6993C63.1737 82.674 63.3177 82.6337 63.4075 82.5784C63.4974 82.5231 63.5423 82.4332 63.5423 82.3088V82.2846C63.5423 81.9828 63.4571 81.7489 63.2866 81.583C63.1184 81.4171 62.8672 81.3342 62.5331 81.3342C62.1852 81.3342 61.911 81.4114 61.7106 81.5657C61.5124 81.7178 61.3753 81.8872 61.2993 82.0738L60.3281 81.8526C60.4433 81.53 60.6115 81.2697 60.8327 81.0715C61.0562 80.871 61.3131 80.7259 61.6034 80.636C61.8938 80.5439 62.1991 80.4978 62.5193 80.4978C62.7313 80.4978 62.9559 80.5231 63.1933 80.5738C63.4329 80.6222 63.6564 80.7121 63.8638 80.8434C64.0734 80.9747 64.2451 81.1625 64.3787 81.4067C64.5124 81.6487 64.5792 81.9632 64.5792 82.3503V85.8755H63.57V85.1497H63.5285C63.4617 85.2834 63.3615 85.4147 63.2278 85.5437C63.0942 85.6728 62.9225 85.7799 62.7129 85.8652C62.5032 85.9504 62.252 85.993 61.9594 85.993ZM62.1841 85.1636C62.4698 85.1636 62.714 85.1071 62.9168 84.9942C63.1218 84.8813 63.2774 84.7339 63.3834 84.5518C63.4916 84.3675 63.5458 84.1705 63.5458 83.9608V83.2765C63.5089 83.3134 63.4375 83.3479 63.3315 83.3802C63.2278 83.4102 63.1092 83.4367 62.9755 83.4597C62.8419 83.4804 62.7117 83.5 62.585 83.5184C62.4583 83.5346 62.3523 83.5484 62.267 83.5599C62.0666 83.5853 61.8834 83.6279 61.7175 83.6878C61.5539 83.7477 61.4226 83.8341 61.3235 83.947C61.2267 84.0576 61.1783 84.2051 61.1783 84.3894C61.1783 84.6451 61.2728 84.8387 61.4617 84.97C61.6507 85.0991 61.8915 85.1636 62.1841 85.1636ZM66.4187 87.8663C66.2643 87.8663 66.1238 87.8536 65.9971 87.8283C65.8703 87.8052 65.7759 87.7799 65.7137 87.7522L65.9625 86.9055C66.1514 86.9562 66.3196 86.978 66.4671 86.9711C66.6146 86.9642 66.7447 86.9089 66.8576 86.8052C66.9728 86.7016 67.0742 86.5322 67.1618 86.2972L67.2897 85.9447L65.3473 80.5669H66.4533L67.7977 84.6866H67.853L69.1974 80.5669H70.3069L68.1191 86.584C68.0177 86.8605 67.8887 87.0944 67.732 87.2856C67.5754 87.4792 67.3887 87.6243 67.1721 87.7211C66.9556 87.8179 66.7044 87.8663 66.4187 87.8663ZM73.3854 85.9827C72.8624 85.9827 72.4119 85.8709 72.0341 85.6474C71.6585 85.4216 71.3682 85.1048 71.1631 84.697C70.9604 84.2869 70.859 83.8065 70.859 83.2558C70.859 82.712 70.9604 82.2328 71.1631 81.818C71.3682 81.4033 71.6539 81.0796 72.0202 80.8469C72.3889 80.6141 72.8198 80.4978 73.3128 80.4978C73.6124 80.4978 73.9027 80.5473 74.1838 80.6464C74.4649 80.7455 74.7172 80.901 74.9407 81.113C75.1642 81.325 75.3404 81.6003 75.4695 81.939C75.5985 82.2754 75.663 82.6844 75.663 83.1659V83.5323H71.4431V82.7581H74.6504C74.6504 82.4862 74.5951 82.2454 74.4845 82.0358C74.3739 81.8238 74.2183 81.6567 74.0179 81.5346C73.8197 81.4125 73.587 81.3514 73.3198 81.3514C73.0294 81.3514 72.776 81.4229 72.5594 81.5657C72.3451 81.7063 72.1792 81.8906 72.0617 82.1187C71.9465 82.3445 71.8889 82.5899 71.8889 82.8549V83.4597C71.8889 83.8145 71.9511 84.1164 72.0755 84.3652C72.2023 84.614 72.3785 84.8041 72.6043 84.9355C72.8301 85.0645 73.094 85.129 73.3958 85.129C73.5916 85.129 73.7702 85.1014 73.9315 85.0461C74.0928 84.9885 74.2322 84.9032 74.3497 84.7903C74.4672 84.6774 74.557 84.538 74.6193 84.3721L75.5973 84.5484C75.519 84.8364 75.3785 85.0887 75.1757 85.3053C74.9752 85.5196 74.7229 85.6866 74.4188 85.8064C74.117 85.9239 73.7725 85.9827 73.3854 85.9827ZM76.8096 85.8755V80.5669H77.8084V81.4102H77.8637C77.9605 81.1245 78.131 80.8998 78.3752 80.7363C78.6218 80.5704 78.9005 80.4874 79.2116 80.4874C79.2761 80.4874 79.3522 80.4897 79.4397 80.4943C79.5296 80.4989 79.5998 80.5047 79.6505 80.5116V81.5001C79.6091 81.4885 79.5353 81.4759 79.4293 81.462C79.3234 81.4459 79.2174 81.4379 79.1114 81.4379C78.8671 81.4379 78.6494 81.4897 78.4582 81.5934C78.2692 81.6948 78.1195 81.8365 78.0089 82.0185C77.8983 82.1982 77.843 82.4033 77.843 82.6337V85.8755H76.8096ZM85.7921 78.7974V85.8755H84.7207V79.8688H84.6792L82.9857 80.9747V79.9517L84.7518 78.7974H85.7921ZM87.7068 85.8755V85.1014L90.1019 82.6199C90.3576 82.3503 90.5685 82.1141 90.7344 81.9113C90.9026 81.7063 91.0281 81.5116 91.1111 81.3273C91.194 81.1429 91.2355 80.9471 91.2355 80.7397C91.2355 80.5047 91.1802 80.3019 91.0696 80.1314C90.959 79.9586 90.8081 79.8261 90.6169 79.734C90.4256 79.6395 90.2102 79.5923 89.9706 79.5923C89.7171 79.5923 89.4959 79.6441 89.307 79.7478C89.118 79.8515 88.9729 79.9978 88.8715 80.1867C88.7701 80.3757 88.7194 80.5969 88.7194 80.8503H87.6999C87.6999 80.4194 87.799 80.0427 87.9971 79.7202C88.1953 79.3976 88.4671 79.1476 88.8128 78.9702C89.1584 78.7905 89.5512 78.7006 89.9913 78.7006C90.436 78.7006 90.8277 78.7893 91.1664 78.9667C91.5074 79.1418 91.7735 79.3815 91.9647 79.6856C92.156 79.9874 92.2516 80.3284 92.2516 80.7086C92.2516 80.9713 92.2021 81.2282 92.103 81.4793C92.0062 81.7305 91.8369 82.0104 91.5949 82.3192C91.353 82.6256 91.0166 82.9977 90.5858 83.4355L89.1791 84.9078V84.9597H92.3657V85.8755H87.7068Z" fill="#19171C"/>
<path d="M97.5975 83.4666C97.4086 83.4666 97.2461 83.3998 97.1102 83.2661C96.9742 83.1302 96.9062 82.9666 96.9062 82.7754C96.9062 82.5864 96.9742 82.4252 97.1102 82.2915C97.2461 82.1556 97.4086 82.0876 97.5975 82.0876C97.7864 82.0876 97.9489 82.1556 98.0848 82.2915C98.2207 82.4252 98.2887 82.5864 98.2887 82.7754C98.2887 82.9021 98.2565 83.0185 98.1919 83.1244C98.1297 83.2281 98.0468 83.3111 97.9431 83.3733C97.8394 83.4355 97.7242 83.4666 97.5975 83.4666Z" fill="#19171C" fill-opacity="0.54"/>
<path d="M102.992 78.7974H104.288L106.542 84.2995H106.625L108.878 78.7974H110.174V85.8755H109.158V80.7535H109.092L107.005 85.8652H106.161L104.074 80.7501H104.008V85.8755H102.992V78.7974ZM113.88 85.9827C113.382 85.9827 112.948 85.8686 112.577 85.6405C112.206 85.4124 111.918 85.0933 111.713 84.6832C111.508 84.273 111.405 83.7938 111.405 83.2454C111.405 82.6947 111.508 82.2132 111.713 81.8007C111.918 81.3883 112.206 81.068 112.577 80.8399C112.948 80.6118 113.382 80.4978 113.88 80.4978C114.378 80.4978 114.812 80.6118 115.183 80.8399C115.554 81.068 115.842 81.3883 116.047 81.8007C116.252 82.2132 116.354 82.6947 116.354 83.2454C116.354 83.7938 116.252 84.273 116.047 84.6832C115.842 85.0933 115.554 85.4124 115.183 85.6405C114.812 85.8686 114.378 85.9827 113.88 85.9827ZM113.883 85.1152C114.206 85.1152 114.473 85.0299 114.685 84.8594C114.897 84.6889 115.054 84.462 115.155 84.1786C115.259 83.8952 115.311 83.583 115.311 83.242C115.311 82.9033 115.259 82.5922 115.155 82.3088C115.054 82.0231 114.897 81.7938 114.685 81.621C114.473 81.4482 114.206 81.3618 113.883 81.3618C113.558 81.3618 113.289 81.4482 113.075 81.621C112.863 81.7938 112.705 82.0231 112.601 82.3088C112.5 82.5922 112.449 82.9033 112.449 83.242C112.449 83.583 112.5 83.8952 112.601 84.1786C112.705 84.462 112.863 84.6889 113.075 84.8594C113.289 85.0299 113.558 85.1152 113.883 85.1152ZM121.869 80.5669L119.944 85.8755H118.838L116.909 80.5669H118.019L119.363 84.6521H119.418L120.759 80.5669H121.869ZM124.947 85.9827C124.424 85.9827 123.974 85.8709 123.596 85.6474C123.22 85.4216 122.93 85.1048 122.725 84.697C122.522 84.2869 122.421 83.8065 122.421 83.2558C122.421 82.712 122.522 82.2328 122.725 81.818C122.93 81.4033 123.216 81.0796 123.582 80.8469C123.951 80.6141 124.382 80.4978 124.875 80.4978C125.174 80.4978 125.465 80.5473 125.746 80.6464C126.027 80.7455 126.279 80.901 126.503 81.113C126.726 81.325 126.902 81.6003 127.031 81.939C127.16 82.2754 127.225 82.6844 127.225 83.1659V83.5323H123.005V82.7581H126.212C126.212 82.4862 126.157 82.2454 126.046 82.0358C125.936 81.8238 125.78 81.6567 125.58 81.5346C125.382 81.4125 125.149 81.3514 124.882 81.3514C124.591 81.3514 124.338 81.4229 124.121 81.5657C123.907 81.7063 123.741 81.8906 123.624 82.1187C123.508 82.3445 123.451 82.5899 123.451 82.8549V83.4597C123.451 83.8145 123.513 84.1164 123.637 84.3652C123.764 84.614 123.94 84.8041 124.166 84.9355C124.392 85.0645 124.656 85.129 124.958 85.129C125.154 85.129 125.332 85.1014 125.493 85.0461C125.655 84.9885 125.794 84.9032 125.912 84.7903C126.029 84.6774 126.119 84.538 126.181 84.3721L127.159 84.5484C127.081 84.8364 126.94 85.0887 126.738 85.3053C126.537 85.5196 126.285 85.6866 125.981 85.8064C125.679 85.9239 125.334 85.9827 124.947 85.9827Z" fill="#19171C" fill-opacity="0.54"/>
<mask id="mask5_828_190" style="mask-type:luminance" maskUnits="userSpaceOnUse" x="23" y="103" width="13" height="13">
<path d="M35.9354 103.314H23.957V115.292H35.9354V103.314Z" fill="white"/>
</mask>
<g mask="url(#mask5_828_190)">
<path fill-rule="evenodd" clip-rule="evenodd" d="M30.1174 110.138L29.727 111.895L32.1571 109.262L29.7744 108.468L30.1648 106.711L27.7346 109.344L30.1174 110.138ZM28.9477 110.8L27.9495 115.292L33.9387 108.804L30.9441 107.806L31.9423 103.314L25.9531 109.802L28.9477 110.8Z" fill="#97979B"/>
</g>
<path d="M42.7031 113.314V106.236H47.0924V107.155H43.771V109.311H46.7779V110.227H43.771V113.314H42.7031ZM49.8487 113.431C49.5123 113.431 49.2081 113.369 48.9362 113.245C48.6644 113.118 48.4489 112.935 48.2899 112.695C48.1333 112.455 48.0549 112.162 48.0549 111.814C48.0549 111.514 48.1125 111.268 48.2277 111.074C48.3429 110.881 48.4985 110.727 48.6943 110.614C48.8902 110.502 49.109 110.416 49.351 110.359C49.5929 110.301 49.8394 110.257 50.0906 110.227C50.4086 110.191 50.6666 110.161 50.8648 110.138C51.0629 110.112 51.2069 110.072 51.2968 110.017C51.3866 109.961 51.4316 109.871 51.4316 109.747V109.723C51.4316 109.421 51.3463 109.187 51.1758 109.021C51.0076 108.855 50.7565 108.772 50.4224 108.772C50.0745 108.772 49.8003 108.85 49.5998 109.004C49.4017 109.156 49.2646 109.325 49.1885 109.512L48.2174 109.291C48.3326 108.968 48.5008 108.708 48.722 108.51C48.9455 108.309 49.2024 108.164 49.4927 108.074C49.783 107.982 50.0883 107.936 50.4086 107.936C50.6205 107.936 50.8452 107.961 51.0825 108.012C51.3221 108.06 51.5456 108.15 51.753 108.282C51.9627 108.413 52.1343 108.601 52.268 108.845C52.4016 109.087 52.4684 109.401 52.4684 109.788V113.314H51.4592V112.588H51.4177C51.3509 112.722 51.2507 112.853 51.1171 112.982C50.9834 113.111 50.8118 113.218 50.6021 113.303C50.3924 113.389 50.1413 113.431 49.8487 113.431ZM50.0733 112.602C50.359 112.602 50.6032 112.545 50.806 112.432C51.0111 112.319 51.1666 112.172 51.2726 111.99C51.3809 111.806 51.435 111.609 51.435 111.399V110.715C51.3982 110.752 51.3267 110.786 51.2207 110.818C51.1171 110.848 50.9984 110.875 50.8648 110.898C50.7311 110.919 50.6009 110.938 50.4742 110.957C50.3475 110.973 50.2415 110.987 50.1563 110.998C49.9558 111.023 49.7726 111.066 49.6067 111.126C49.4431 111.186 49.3118 111.272 49.2127 111.385C49.116 111.496 49.0676 111.643 49.0676 111.828C49.0676 112.083 49.162 112.277 49.351 112.408C49.5399 112.537 49.7807 112.602 50.0733 112.602ZM55.8321 113.417C55.4035 113.417 55.0211 113.308 54.6847 113.089C54.3506 112.868 54.0879 112.553 53.8967 112.146C53.7077 111.735 53.6133 111.243 53.6133 110.67C53.6133 110.096 53.7089 109.605 53.9001 109.197C54.0937 108.79 54.3586 108.477 54.695 108.261C55.0314 108.044 55.4128 107.936 55.839 107.936C56.1685 107.936 56.4335 107.991 56.6339 108.102C56.8367 108.21 56.9934 108.337 57.104 108.482C57.2169 108.627 57.3044 108.755 57.3666 108.866H57.4288V106.236H58.4622V113.314H57.453V112.488H57.3666C57.3044 112.601 57.2146 112.73 57.097 112.875C56.9818 113.02 56.8229 113.147 56.6201 113.255C56.4173 113.363 56.1547 113.417 55.8321 113.417ZM56.0602 112.536C56.3574 112.536 56.6086 112.458 56.8136 112.301C57.021 112.142 57.1777 111.922 57.2837 111.641C57.392 111.36 57.4461 111.033 57.4461 110.659C57.4461 110.291 57.3931 109.968 57.2871 109.692C57.1811 109.415 57.0256 109.2 56.8206 109.045C56.6155 108.891 56.362 108.814 56.0602 108.814C55.7491 108.814 55.4899 108.894 55.2826 109.056C55.0752 109.217 54.9185 109.437 54.8125 109.716C54.7089 109.995 54.657 110.309 54.657 110.659C54.657 111.014 54.71 111.333 54.816 111.617C54.922 111.9 55.0787 112.125 55.286 112.291C55.4957 112.454 55.7538 112.536 56.0602 112.536ZM62.2251 113.421C61.7021 113.421 61.2516 113.309 60.8737 113.086C60.4982 112.86 60.2079 112.543 60.0028 112.135C59.8 111.725 59.6987 111.245 59.6987 110.694C59.6987 110.15 59.8 109.671 60.0028 109.256C60.2079 108.841 60.4936 108.518 60.8599 108.285C61.2286 108.052 61.6594 107.936 62.1525 107.936C62.452 107.936 62.7424 107.985 63.0235 108.085C63.3046 108.184 63.5569 108.339 63.7804 108.551C64.0038 108.763 64.1801 109.038 64.3091 109.377C64.4382 109.714 64.5027 110.123 64.5027 110.604V110.97H60.2827V110.196H63.49C63.49 109.924 63.4347 109.684 63.3241 109.474C63.2135 109.262 63.058 109.095 62.8576 108.973C62.6594 108.851 62.4267 108.79 62.1594 108.79C61.8691 108.79 61.6157 108.861 61.3991 109.004C61.1848 109.144 61.0189 109.329 60.9014 109.557C60.7862 109.783 60.7286 110.028 60.7286 110.293V110.898C60.7286 111.253 60.7908 111.555 60.9152 111.803C61.0419 112.052 61.2182 112.242 61.444 112.374C61.6698 112.503 61.9336 112.567 62.2355 112.567C62.4313 112.567 62.6099 112.54 62.7712 112.484C62.9324 112.427 63.0718 112.341 63.1894 112.228C63.3069 112.116 63.3967 111.976 63.4589 111.81L64.437 111.987C64.3587 112.275 64.2181 112.527 64.0154 112.743C63.8149 112.958 63.5626 113.125 63.2585 113.245C62.9566 113.362 62.6122 113.421 62.2251 113.421ZM68.2249 113.314V108.005H69.2583V113.314H68.2249ZM68.7468 107.186C68.5671 107.186 68.4127 107.126 68.2837 107.006C68.157 106.884 68.0936 106.739 68.0936 106.571C68.0936 106.4 68.157 106.255 68.2837 106.135C68.4127 106.013 68.5671 105.952 68.7468 105.952C68.9265 105.952 69.0798 106.013 69.2065 106.135C69.3355 106.255 69.4 106.4 69.4 106.571C69.4 106.739 69.3355 106.884 69.2065 107.006C69.0798 107.126 68.9265 107.186 68.7468 107.186ZM71.6819 110.162V113.314H70.6486V108.005H71.6405V108.869H71.7061C71.8283 108.588 72.0195 108.362 72.2799 108.192C72.5425 108.021 72.8732 107.936 73.2718 107.936C73.6335 107.936 73.9503 108.012 74.2222 108.164C74.4941 108.314 74.7049 108.537 74.8547 108.835C75.0044 109.132 75.0793 109.499 75.0793 109.937V113.314H74.0459V110.061C74.0459 109.677 73.9457 109.376 73.7453 109.159C73.5448 108.941 73.2695 108.831 72.9192 108.831C72.6796 108.831 72.4665 108.883 72.2799 108.987C72.0955 109.09 71.9492 109.242 71.8409 109.443C71.7349 109.641 71.6819 109.881 71.6819 110.162Z" fill="#19171C"/>
<path d="M13.9732 133.26L13.2695 133.964L15.5554 136.254L13.2695 138.545L13.9732 139.249L16.9678 136.254L13.9732 133.26Z" fill="#97979B"/>
<path fill-rule="evenodd" clip-rule="evenodd" d="M35.9331 132.262H33.9367V133.26H34.9349V134.258H35.9331V132.262ZM32.4393 133.26V132.262H30.4429V133.26H32.4393ZM28.9456 132.262V133.26H27.9474V134.258H26.9492V132.262H28.9456ZM34.9349 135.256V137.253H35.9331V135.256H34.9349ZM34.9349 139.249V138.251H35.9331V140.247H33.9367V139.249H34.9349ZM32.4393 139.249H30.4429V140.247H32.4393V139.249ZM27.9474 139.249H28.9456V140.247H26.9492V138.251H27.9474V139.249ZM27.9474 137.253V135.256H26.9492V137.253H27.9474Z" fill="#97979B"/>
<path d="M48.8493 136.726C48.8493 137.482 48.711 138.132 48.4345 138.675C48.158 139.217 47.779 139.634 47.2975 139.926C46.8182 140.217 46.2733 140.362 45.6627 140.362C45.0498 140.362 44.5026 140.217 44.021 139.926C43.5418 139.634 43.1639 139.216 42.8874 138.672C42.6109 138.128 42.4727 137.479 42.4727 136.726C42.4727 135.97 42.6109 135.322 42.8874 134.78C43.1639 134.236 43.5418 133.819 44.021 133.529C44.5026 133.237 45.0498 133.09 45.6627 133.09C46.2733 133.09 46.8182 133.237 47.2975 133.529C47.779 133.819 48.158 134.236 48.4345 134.78C48.711 135.322 48.8493 135.97 48.8493 136.726ZM47.7917 136.726C47.7917 136.15 47.6984 135.665 47.5117 135.271C47.3274 134.875 47.074 134.575 46.7514 134.372C46.4311 134.167 46.0682 134.065 45.6627 134.065C45.2549 134.065 44.8908 134.167 44.5706 134.372C44.2503 134.575 43.9968 134.875 43.8102 135.271C43.6259 135.665 43.5337 136.15 43.5337 136.726C43.5337 137.302 43.6259 137.788 43.8102 138.185C43.9968 138.579 44.2503 138.878 44.5706 139.083C44.8908 139.286 45.2549 139.387 45.6627 139.387C46.0682 139.387 46.4311 139.286 46.7514 139.083C47.074 138.878 47.3274 138.579 47.5117 138.185C47.6984 137.788 47.7917 137.302 47.7917 136.726ZM53.4606 138.064V134.957H54.4975V140.265H53.4814V139.346H53.4261C53.3039 139.629 53.1081 139.865 52.8385 140.054C52.5712 140.241 52.2383 140.334 51.8397 140.334C51.4987 140.334 51.1968 140.259 50.9342 140.11C50.6738 139.958 50.4687 139.733 50.319 139.436C50.1715 139.138 50.0978 138.771 50.0978 138.333V134.957H51.1312V138.209C51.1312 138.57 51.2314 138.858 51.4319 139.073C51.6323 139.287 51.8927 139.394 52.2129 139.394C52.4065 139.394 52.5989 139.346 52.7901 139.249C52.9837 139.152 53.1438 139.006 53.2705 138.81C53.3996 138.614 53.4629 138.365 53.4606 138.064ZM58.364 134.957V135.786H55.4643V134.957H58.364ZM56.2419 133.685H57.2753V138.706C57.2753 138.907 57.3053 139.058 57.3652 139.159C57.4251 139.258 57.5023 139.326 57.5967 139.363C57.6935 139.398 57.7984 139.415 57.9113 139.415C57.9942 139.415 58.0668 139.409 58.129 139.398C58.1912 139.386 58.2396 139.377 58.2741 139.37L58.4608 140.224C58.4009 140.247 58.3156 140.27 58.205 140.293C58.0944 140.318 57.9562 140.332 57.7903 140.334C57.5184 140.339 57.265 140.29 57.0299 140.189C56.7949 140.088 56.6048 139.931 56.4597 139.719C56.3145 139.507 56.2419 139.241 56.2419 138.921V133.685ZM59.5071 140.265V134.957H60.506V135.8H60.5612C60.658 135.514 60.8285 135.289 61.0728 135.126C61.3193 134.96 61.5981 134.877 61.9091 134.877C61.9737 134.877 62.0497 134.879 62.1372 134.884C62.2271 134.889 62.2974 134.894 62.3481 134.901V135.89C62.3066 135.878 62.2329 135.865 62.1269 135.852C62.0209 135.836 61.9149 135.827 61.8089 135.827C61.5647 135.827 61.3469 135.879 61.1557 135.983C60.9668 136.084 60.817 136.226 60.7064 136.408C60.5958 136.588 60.5405 136.793 60.5405 137.023V140.265H59.5071ZM65.2884 140.372C64.7907 140.372 64.3564 140.258 63.9854 140.03C63.6145 139.802 63.3264 139.483 63.1214 139.073C62.9163 138.663 62.8138 138.183 62.8138 137.635C62.8138 137.084 62.9163 136.603 63.1214 136.19C63.3264 135.778 63.6145 135.458 63.9854 135.23C64.3564 135.001 64.7907 134.887 65.2884 134.887C65.7861 134.887 66.2204 135.001 66.5913 135.23C66.9623 135.458 67.2503 135.778 67.4554 136.19C67.6604 136.603 67.763 137.084 67.763 137.635C67.763 138.183 67.6604 138.663 67.4554 139.073C67.2503 139.483 66.9623 139.802 66.5913 140.03C66.2204 140.258 65.7861 140.372 65.2884 140.372ZM65.2918 139.505C65.6144 139.505 65.8817 139.42 66.0937 139.249C66.3056 139.079 66.4623 138.852 66.5637 138.568C66.6674 138.285 66.7192 137.973 66.7192 137.632C66.7192 137.293 66.6674 136.982 66.5637 136.698C66.4623 136.413 66.3056 136.183 66.0937 136.011C65.8817 135.838 65.6144 135.751 65.2918 135.751C64.967 135.751 64.6974 135.838 64.4831 136.011C64.2711 136.183 64.1133 136.413 64.0096 136.698C63.9082 136.982 63.8575 137.293 63.8575 137.632C63.8575 137.973 63.9082 138.285 64.0096 138.568C64.1133 138.852 64.2711 139.079 64.4831 139.249C64.6974 139.42 64.967 139.505 65.2918 139.505Z" fill="#19171C"/>
</g>
<mask id="mask6_828_190" style="mask-type:luminance" maskUnits="userSpaceOnUse" x="0" y="0" width="180" height="180">
<path d="M0 0H179.677V179.677H0V0Z" fill="white"/>
</mask>
<g mask="url(#mask6_828_190)">
<path d="M179.677 0H180.425V-0.75H179.677V0ZM0 0.75H179.677V-0.75H0V0.75ZM178.928 0V179.677H180.425V0H178.928Z" fill="#E5E4E7"/>
</g>
</g>
<defs>
<clipPath id="clip0_828_190">
<rect width="180" height="180" fill="white"/>
</clipPath>
</defs>
</svg>
