<svg width="156" height="560" viewBox="0 0 156 560" fill="none" xmlns="http://www.w3.org/2000/svg">
<g clip-path="url(#clip0_827_117)">
<mask id="mask0_827_117" style="mask-type:luminance" maskUnits="userSpaceOnUse" x="0" y="0" width="156" height="560">
<path d="M0 0H156V560H1V0H0Z" fill="white"/>
</mask>
<g mask="url(#mask0_827_117)">
<path d="M1.40234 0H155.999V560H1.40234V0Z" fill="white"/>
<path d="M1.40234 0H155.999V269.931H1.40234V0Z" fill="white"/>
<mask id="mask1_827_117" style="mask-type:luminance" maskUnits="userSpaceOnUse" x="0" y="0" width="157" height="270">
<path d="M156.402 0H0.402344V270H156.402V0Z" fill="white"/>
<path d="M1.40234 0H155.999V269.931H1.40234V0Z" fill="black"/>
</mask>
<g mask="url(#mask1_827_117)">
<path d="M2.01602 269.931V0H0.789062V269.931H2.01602Z" fill="#E5E4E7"/>
</g>
<path d="M1.40234 0H155.999V31.9009H1.40234V0Z" fill="white"/>
<mask id="mask2_827_117" style="mask-type:luminance" maskUnits="userSpaceOnUse" x="1" y="0" width="155" height="32">
<path d="M1.40234 0H155.999V31.9009H1.40234V0Z" fill="white"/>
</mask>
<g mask="url(#mask2_827_117)">
<path d="M155.999 31.2874H1.40234V32.5144H155.999V31.2874Z" fill="#F2F1F3"/>
</g>
<path d="M151.09 4.9082H6.30859V26.9935H151.09V4.9082Z" fill="#F2F1F3"/>
<path d="M151.09 4.9082H78.6992V26.9935H151.09V4.9082Z" fill="#19171C"/>
<path d="M31.8269 18.4509H29.9492V12.6507H31.8863C32.4547 12.6507 32.9427 12.7668 33.3505 12.9991C33.7584 13.2294 34.0708 13.5608 34.288 13.9931C34.507 14.4236 34.6165 14.94 34.6165 15.5423C34.6165 16.1465 34.506 16.6657 34.2851 17.1C34.0661 17.5342 33.7489 17.8684 33.3335 18.1025C32.9182 18.3348 32.4159 18.4509 31.8269 18.4509ZM30.8243 17.6862H31.7787C32.2205 17.6862 32.5878 17.6031 32.8804 17.437C33.1731 17.2689 33.3921 17.0263 33.5375 16.7091C33.6828 16.39 33.7555 16.0011 33.7555 15.5423C33.7555 15.0873 33.6828 14.7012 33.5375 14.384C33.394 14.0668 33.1797 13.826 32.8946 13.6618C32.6095 13.4975 32.2555 13.4154 31.8325 13.4154H30.8243V17.6862ZM37.5116 18.5387C37.083 18.5387 36.7139 18.4471 36.4043 18.264C36.0965 18.0789 35.8586 17.8193 35.6906 17.4851C35.5244 17.1491 35.4413 16.7554 35.4413 16.3041C35.4413 15.8586 35.5244 15.4658 35.6906 15.126C35.8586 14.7861 36.0927 14.5208 36.3929 14.3302C36.695 14.1395 37.0481 14.0441 37.4522 14.0441C37.6976 14.0441 37.9355 14.0847 38.1658 14.1659C38.3962 14.2471 38.6029 14.3745 38.7861 14.5482C38.9692 14.7219 39.1137 14.9476 39.2194 15.2251C39.3251 15.5008 39.378 15.8359 39.378 16.2305V16.5307H35.92V15.8963H38.5482C38.5482 15.6735 38.5029 15.4762 38.4122 15.3044C38.3216 15.1307 38.1942 14.9938 38.0299 14.8937C37.8675 14.7937 37.6768 14.7436 37.4578 14.7436C37.2199 14.7436 37.0122 14.8022 36.8347 14.9192C36.6592 15.0344 36.5232 15.1855 36.4269 15.3724C36.3325 15.5574 36.2853 15.7585 36.2853 15.9756V16.4712C36.2853 16.762 36.3363 17.0093 36.4383 17.2132C36.5421 17.4172 36.6865 17.5729 36.8716 17.6805C37.0566 17.7863 37.2728 17.8391 37.5201 17.8391C37.6806 17.8391 37.8269 17.8165 37.9591 17.7712C38.0913 17.724 38.2055 17.6541 38.3018 17.5616C38.3981 17.4691 38.4717 17.3549 38.5227 17.2189L39.3242 17.3633C39.26 17.5994 39.1448 17.8061 38.9787 17.9836C38.8144 18.1592 38.6077 18.2961 38.3584 18.3942C38.1111 18.4905 37.8288 18.5387 37.5116 18.5387ZM43.5773 15.1628L42.8098 15.2987C42.7777 15.2006 42.7267 15.1071 42.6569 15.0184C42.5889 14.9296 42.4964 14.8569 42.3793 14.8003C42.2623 14.7436 42.1159 14.7153 41.9403 14.7153C41.7006 14.7153 41.5004 14.7691 41.3399 14.8768C41.1794 14.9825 41.0992 15.1194 41.0992 15.2874C41.0992 15.4328 41.153 15.5499 41.2606 15.6386C41.3683 15.7273 41.542 15.8 41.7817 15.8567L42.4728 16.0153C42.8731 16.1078 43.1714 16.2503 43.3677 16.4429C43.5641 16.6355 43.6623 16.8857 43.6623 17.1934C43.6623 17.454 43.5867 17.6862 43.4357 17.8901C43.2865 18.0921 43.0779 18.2507 42.8098 18.3659C42.5436 18.4811 42.2349 18.5387 41.8837 18.5387C41.3966 18.5387 40.9991 18.4348 40.6914 18.2271C40.3836 18.0176 40.1948 17.7202 40.125 17.335L40.9434 17.2104C40.9944 17.4238 41.0992 17.5852 41.2578 17.6947C41.4164 17.8023 41.6231 17.8561 41.878 17.8561C42.1556 17.8561 42.3774 17.7985 42.5436 17.6834C42.7097 17.5663 42.7928 17.4238 42.7928 17.2557C42.7928 17.1198 42.7418 17.0056 42.6399 16.913C42.5398 16.8205 42.3859 16.7507 42.1782 16.7035L41.4419 16.542C41.036 16.4495 40.7357 16.3022 40.5413 16.1002C40.3487 15.8982 40.2524 15.6424 40.2524 15.3327C40.2524 15.0759 40.3241 14.8513 40.4676 14.6587C40.6111 14.4661 40.8094 14.316 41.0624 14.2084C41.3154 14.0989 41.6052 14.0441 41.9318 14.0441C42.402 14.0441 42.772 14.1461 43.042 14.35C43.312 14.552 43.4905 14.8229 43.5773 15.1628ZM44.5933 18.4509V14.1008H45.4401V18.4509H44.5933ZM45.021 13.4295C44.8737 13.4295 44.7472 13.3805 44.6415 13.2823C44.5376 13.1822 44.4857 13.0633 44.4857 12.9254C44.4857 12.7857 44.5376 12.6668 44.6415 12.5686C44.7472 12.4685 44.8737 12.4185 45.021 12.4185C45.1682 12.4185 45.2938 12.4685 45.3976 12.5686C45.5034 12.6668 45.5562 12.7857 45.5562 12.9254C45.5562 13.0633 45.5034 13.1822 45.3976 13.2823C45.2938 13.3805 45.1682 13.4295 45.021 13.4295ZM48.4032 20.1728C48.0577 20.1728 47.7603 20.1275 47.5111 20.0369C47.2638 19.9462 47.0617 19.8263 46.905 19.6772C46.7483 19.528 46.6313 19.3647 46.5539 19.1872L47.2817 18.887C47.3327 18.9701 47.4007 19.0579 47.4856 19.1504C47.5725 19.2448 47.6895 19.3251 47.8368 19.3911C47.986 19.4572 48.1776 19.4903 48.4117 19.4903C48.7327 19.4903 48.998 19.4119 49.2075 19.2552C49.4171 19.1004 49.5219 18.853 49.5219 18.5132V17.6579H49.4681C49.4171 17.7504 49.3435 17.8533 49.2472 17.9666C49.1528 18.0799 49.0225 18.1781 48.8564 18.2611C48.6902 18.3442 48.474 18.3857 48.2078 18.3857C47.8642 18.3857 47.5545 18.3055 47.2789 18.145C47.0051 17.9826 46.788 17.7438 46.6275 17.4285C46.4689 17.1113 46.3896 16.7214 46.3896 16.2588C46.3896 15.7962 46.4679 15.3997 46.6247 15.0693C46.7833 14.7389 47.0004 14.4859 47.276 14.3103C47.5517 14.1328 47.8642 14.0441 48.2135 14.0441C48.4835 14.0441 48.7015 14.0894 48.8677 14.1801C49.0338 14.2688 49.1632 14.3726 49.2557 14.4916C49.3501 14.6105 49.4228 14.7153 49.4738 14.8059H49.5361V14.1008H50.3659V18.5472C50.3659 18.921 50.279 19.2278 50.1053 19.4676C49.9316 19.7074 49.6966 19.8849 49.4001 20C49.1056 20.1152 48.7733 20.1728 48.4032 20.1728ZM48.3947 17.6834C48.6383 17.6834 48.8441 17.6267 49.0121 17.5134C49.1821 17.3983 49.3104 17.234 49.3973 17.0207C49.486 16.8054 49.5304 16.5477 49.5304 16.2475C49.5304 15.9548 49.487 15.6971 49.4001 15.4743C49.3133 15.2515 49.1858 15.0778 49.0178 14.9532C48.8498 14.8267 48.6421 14.7635 48.3947 14.7635C48.1398 14.7635 47.9274 14.8295 47.7575 14.9617C47.5876 15.092 47.4592 15.2695 47.3723 15.4942C47.2874 15.7188 47.2449 15.9699 47.2449 16.2475C47.2449 16.5326 47.2883 16.7828 47.3752 16.998C47.462 17.2132 47.5904 17.3813 47.7603 17.5021C47.9322 17.623 48.1436 17.6834 48.3947 17.6834ZM52.3484 15.868V18.4509H51.5016V14.1008H52.3144V14.8088H52.3682C52.4682 14.5784 52.625 14.3934 52.8383 14.2537C53.0536 14.114 53.3245 14.0441 53.6511 14.0441C53.9476 14.0441 54.2072 14.1064 54.43 14.231C54.6528 14.3538 54.8255 14.5369 54.9482 14.7805C55.071 15.024 55.1323 15.3252 55.1323 15.6839V18.4509H54.2855V15.7859C54.2855 15.4706 54.2034 15.2242 54.0391 15.0467C53.8749 14.8673 53.6492 14.7776 53.3623 14.7776C53.1659 14.7776 52.9912 14.8201 52.8383 14.9051C52.6873 14.99 52.5674 15.1146 52.4786 15.2789C52.3918 15.4413 52.3484 15.6376 52.3484 15.868Z" fill="#97979B"/>
<path d="M100.133 18.451H99.0117L101.053 12.6508H102.35L104.395 18.451H103.274L101.724 13.8403H101.679L100.133 18.451ZM100.17 16.1768H103.228V17.0208H100.17V16.1768ZM106.139 15.9021V18.451H105.114V14.1009H106.094V14.84H106.145C106.245 14.5965 106.404 14.4029 106.623 14.2595C106.844 14.116 107.117 14.0442 107.442 14.0442C107.742 14.0442 108.003 14.1084 108.226 14.2368C108.451 14.3652 108.625 14.5512 108.747 14.7947C108.872 15.0383 108.933 15.3338 108.931 15.6812V18.451H107.906V15.8398C107.906 15.549 107.831 15.3215 107.68 15.1572C107.531 14.993 107.324 14.9108 107.059 14.9108C106.88 14.9108 106.721 14.9505 106.581 15.0298C106.443 15.1072 106.334 15.2195 106.255 15.3668C106.178 15.5141 106.139 15.6925 106.139 15.9021ZM109.974 18.451V14.1009H110.999V18.451H109.974ZM110.489 13.4835C110.327 13.4835 110.187 13.4296 110.07 13.322C109.953 13.2125 109.894 13.0813 109.894 12.9284C109.894 12.7735 109.953 12.6423 110.07 12.5347C110.187 12.4252 110.327 12.3704 110.489 12.3704C110.653 12.3704 110.793 12.4252 110.908 12.5347C111.025 12.6423 111.084 12.7735 111.084 12.9284C111.084 13.0813 111.025 13.2125 110.908 13.322C110.793 13.4296 110.653 13.4835 110.489 13.4835ZM112.053 18.451V14.1009H113.033V14.84H113.084C113.175 14.5908 113.325 14.3963 113.534 14.2566C113.744 14.115 113.994 14.0442 114.285 14.0442C114.579 14.0442 114.828 14.116 115.03 14.2595C115.234 14.4011 115.377 14.5946 115.46 14.84H115.506C115.602 14.5984 115.764 14.4058 115.993 14.2623C116.223 14.1169 116.496 14.0442 116.811 14.0442C117.211 14.0442 117.538 14.1707 117.791 14.4237C118.044 14.6767 118.171 15.0458 118.171 15.5311V18.451H117.142V15.6897C117.142 15.4197 117.071 15.2224 116.927 15.0978C116.784 14.9713 116.608 14.908 116.4 14.908C116.153 14.908 115.96 14.9854 115.82 15.1402C115.682 15.2932 115.613 15.4924 115.613 15.7378V18.451H114.608V15.6472C114.608 15.4225 114.54 15.2431 114.404 15.1091C114.27 14.975 114.094 14.908 113.877 14.908C113.73 14.908 113.596 14.9458 113.475 15.0213C113.354 15.0949 113.258 15.1997 113.186 15.3357C113.114 15.4697 113.078 15.6264 113.078 15.8058V18.451H112.053ZM120.462 18.5388C120.187 18.5388 119.938 18.4897 119.718 18.3915C119.499 18.2914 119.325 18.1442 119.196 17.9497C119.07 17.7552 119.007 17.5154 119.007 17.2303C119.007 16.9849 119.052 16.7819 119.143 16.6214C119.233 16.4609 119.357 16.3326 119.514 16.2363C119.67 16.14 119.847 16.0673 120.043 16.0182C120.242 15.9672 120.446 15.9304 120.658 15.9077C120.913 15.8813 121.119 15.8577 121.278 15.8369C121.437 15.8143 121.552 15.7803 121.624 15.735C121.697 15.6878 121.734 15.6151 121.734 15.5169V15.4999C121.734 15.2866 121.671 15.1214 121.544 15.0043C121.418 14.8872 121.236 14.8287 120.998 14.8287C120.747 14.8287 120.547 14.8835 120.4 14.993C120.255 15.1025 120.157 15.2318 120.106 15.381L119.148 15.245C119.224 14.9807 119.348 14.7598 119.522 14.5823C119.696 14.4029 119.908 14.2689 120.159 14.1802C120.411 14.0895 120.688 14.0442 120.992 14.0442C121.202 14.0442 121.41 14.0688 121.618 14.1178C121.826 14.1669 122.015 14.2481 122.187 14.3614C122.359 14.4728 122.497 14.6248 122.601 14.8174C122.706 15.01 122.759 15.2507 122.759 15.5396V18.451H121.774V17.8534H121.74C121.677 17.9742 121.59 18.0875 121.476 18.1933C121.365 18.2971 121.224 18.3811 121.054 18.4453C120.886 18.5076 120.689 18.5388 120.462 18.5388ZM120.729 17.7854C120.934 17.7854 121.113 17.7448 121.264 17.6637C121.415 17.5806 121.531 17.4711 121.612 17.3351C121.695 17.1992 121.737 17.051 121.737 16.8905V16.3779C121.705 16.4043 121.65 16.4288 121.573 16.4515C121.497 16.4742 121.412 16.494 121.318 16.511C121.223 16.528 121.13 16.5431 121.037 16.5563C120.945 16.5695 120.865 16.5808 120.797 16.5903C120.644 16.611 120.507 16.645 120.386 16.6922C120.265 16.7394 120.17 16.8055 120.1 16.8905C120.03 16.9736 119.995 17.0812 119.995 17.2133C119.995 17.4022 120.064 17.5447 120.202 17.641C120.34 17.7373 120.515 17.7854 120.729 17.7854ZM125.962 14.1009V14.8938H123.462V14.1009H125.962ZM124.079 13.0586H125.104V17.1425C125.104 17.2804 125.125 17.3861 125.167 17.4597C125.21 17.5315 125.267 17.5806 125.336 17.607C125.406 17.6334 125.484 17.6467 125.569 17.6467C125.633 17.6467 125.691 17.6419 125.744 17.6325C125.799 17.6231 125.841 17.6146 125.869 17.607L126.042 18.4085C125.987 18.4274 125.909 18.4481 125.807 18.4708C125.707 18.4935 125.584 18.5067 125.438 18.5105C125.182 18.518 124.95 18.4793 124.745 18.3943C124.539 18.3075 124.375 18.1734 124.255 17.9922C124.136 17.8109 124.077 17.5844 124.079 17.3125V13.0586ZM128.699 18.5359C128.263 18.5359 127.886 18.4453 127.569 18.2641C127.254 18.0809 127.011 17.8222 126.841 17.4881C126.671 17.152 126.586 16.7564 126.586 16.3014C126.586 15.8539 126.671 15.4612 126.841 15.1232C127.013 14.7834 127.253 14.5191 127.56 14.3303C127.868 14.1396 128.23 14.0442 128.645 14.0442C128.913 14.0442 129.166 14.0876 129.404 14.1745C129.644 14.2595 129.855 14.3916 130.039 14.571C130.224 14.7504 130.369 14.9788 130.475 15.2564C130.58 15.532 130.633 15.8605 130.633 16.2419V16.5563H127.068V15.8653H129.651C129.649 15.6689 129.606 15.4943 129.523 15.3413C129.44 15.1865 129.324 15.0647 129.175 14.976C129.027 14.8872 128.856 14.8429 128.659 14.8429C128.45 14.8429 128.266 14.8938 128.107 14.9958C127.948 15.0959 127.825 15.228 127.736 15.3923C127.649 15.5547 127.605 15.7331 127.603 15.9276V16.5308C127.603 16.7838 127.649 17.0009 127.742 17.1822C127.834 17.3616 127.964 17.4994 128.13 17.5957C128.296 17.6901 128.49 17.7373 128.713 17.7373C128.862 17.7373 128.997 17.7165 129.118 17.675C129.239 17.6316 129.344 17.5683 129.432 17.4852C129.521 17.4022 129.588 17.2993 129.634 17.1765L130.591 17.2841C130.53 17.5371 130.415 17.7581 130.245 17.9469C130.077 18.1338 129.862 18.2792 129.6 18.383C129.337 18.485 129.037 18.5359 128.699 18.5359Z" fill="white"/>
<mask id="mask3_827_117" style="mask-type:luminance" maskUnits="userSpaceOnUse" x="1" y="31" width="156" height="39">
<path d="M156.402 31.9009H1.40234V69.9009H156.402V31.9009Z" fill="white"/>
<path d="M1.40234 31.9009H155.999V68.7097H1.40234V31.9009Z" fill="black"/>
</mask>
<g mask="url(#mask3_827_117)">
<path d="M155.999 68.0962H1.40234V69.3232H155.999V68.0962Z" fill="#F2F1F3"/>
</g>
<path d="M26.5117 47.597H27.7974L29.5194 51.7998H29.5873L31.3093 47.597H32.595V53.3971H31.5868V49.4124H31.533L29.93 53.3801H29.1767L27.5737 49.4039H27.5199V53.3971H26.5117V47.597ZM35.5914 53.4821C35.1666 53.4821 34.7984 53.3886 34.4869 53.2017C34.1754 53.0148 33.9337 52.7533 33.7619 52.4172C33.592 52.0812 33.507 51.6884 33.507 51.2391C33.507 50.7897 33.592 50.396 33.7619 50.0581C33.9337 49.7201 34.1754 49.4577 34.4869 49.2708C34.7984 49.0838 35.1666 48.9904 35.5914 48.9904C36.0162 48.9904 36.3844 49.0838 36.6959 49.2708C37.0075 49.4577 37.2482 49.7201 37.4181 50.0581C37.59 50.396 37.6759 50.7897 37.6759 51.2391C37.6759 51.6884 37.59 52.0812 37.4181 52.4172C37.2482 52.7533 37.0075 53.0148 36.6959 53.2017C36.3844 53.3886 36.0162 53.4821 35.5914 53.4821ZM35.5971 52.6608C35.8274 52.6608 36.02 52.5975 36.1748 52.471C36.3297 52.3426 36.4448 52.1708 36.5204 51.9556C36.5978 51.7404 36.6365 51.5006 36.6365 51.2362C36.6365 50.97 36.5978 50.7293 36.5204 50.514C36.4448 50.2969 36.3297 50.1242 36.1748 49.9958C36.02 49.8674 35.8274 49.8032 35.5971 49.8032C35.3611 49.8032 35.1647 49.8674 35.008 49.9958C34.8532 50.1242 34.7371 50.2969 34.6597 50.514C34.5841 50.7293 34.5464 50.97 34.5464 51.2362C34.5464 51.5006 34.5841 51.7404 34.6597 51.9556C34.7371 52.1708 34.8532 52.3426 35.008 52.471C35.1647 52.5975 35.3611 52.6608 35.5971 52.6608ZM42.2837 49.047L40.7345 53.3971H39.6017L38.0525 49.047H39.1457L40.1455 52.2785H40.1908L41.1933 49.047H42.2837ZM44.771 53.4821C44.3349 53.4821 43.9582 53.3915 43.641 53.2102C43.3257 53.0271 43.0831 52.7684 42.9131 52.4342C42.7432 52.0981 42.6583 51.7026 42.6583 51.2476C42.6583 50.8001 42.7432 50.4074 42.9131 50.0694C43.085 49.7296 43.3247 49.4652 43.6325 49.2764C43.9403 49.0857 44.3018 48.9904 44.7172 48.9904C44.9853 48.9904 45.2383 49.0338 45.4762 49.1206C45.716 49.2056 45.9275 49.3378 46.1106 49.5171C46.2956 49.6965 46.441 49.925 46.5467 50.2025C46.6525 50.4782 46.7053 50.8067 46.7053 51.1881V51.5025H43.1397V50.8114H45.7226C45.7207 50.6151 45.6782 50.4404 45.5952 50.2875C45.5121 50.1327 45.396 50.0109 45.2468 49.9221C45.0995 49.8334 44.9277 49.789 44.7314 49.789C44.5218 49.789 44.3377 49.84 44.1791 49.942C44.0205 50.042 43.8968 50.1742 43.8081 50.3385C43.7212 50.5008 43.6769 50.6793 43.675 50.8737V51.477C43.675 51.73 43.7212 51.9471 43.8138 52.1284C43.9063 52.3077 44.0356 52.4455 44.2018 52.5418C44.3679 52.6362 44.5624 52.6834 44.7852 52.6834C44.9343 52.6834 45.0693 52.6627 45.1902 52.6211C45.311 52.5777 45.4158 52.5145 45.5045 52.4314C45.5933 52.3483 45.6603 52.2454 45.7056 52.1227L46.6629 52.2303C46.6024 52.4833 46.4873 52.7042 46.3173 52.893C46.1493 53.0799 45.9341 53.2253 45.6716 53.3292C45.4092 53.4311 45.109 53.4821 44.771 53.4821Z" fill="#19171C"/>
<mask id="mask4_827_117" style="mask-type:luminance" maskUnits="userSpaceOnUse" x="11" y="45" width="11" height="11">
<path d="M21.0344 45.3972H11.2188V55.2129H21.0344V45.3972Z" fill="white"/>
</mask>
<g mask="url(#mask4_827_117)">
<path fill-rule="evenodd" clip-rule="evenodd" d="M16.1253 45.6368L16.4145 45.926L18.0504 47.562L17.472 48.1403L16.5343 47.2026V49.0781H15.7163V47.2026L14.7785 48.1403L14.2001 47.562L15.8361 45.926L16.1253 45.6368ZM13.9606 51.6518L13.0228 50.7141H14.8983V49.8961H13.0228L13.9606 48.9583L13.3822 48.3799L11.7462 50.0159L11.457 50.3051L11.7462 50.5943L13.3822 52.2302L13.9606 51.6518ZM20.5043 50.0159L18.8684 48.3799L18.29 48.9583L19.2278 49.8961H17.3522V50.7141H19.2278L18.29 51.6518L18.8684 52.2302L20.5043 50.5943L20.7935 50.3051L20.5043 50.0159ZM14.7785 52.4698L15.7163 53.4075V51.532H16.5343V53.4075L17.472 52.4698L18.0504 53.0482L16.4145 54.6841L16.1253 54.9733L15.8361 54.6841L14.2001 53.0482L14.7785 52.4698Z" fill="#19171C"/>
</g>
<path d="M148.638 40.4897H131.461V57.6671H148.638V40.4897Z" fill="#F2F1F3" fill-opacity="0.35"/>
<path d="M137.595 48.2606C137.145 48.2606 136.777 48.6286 136.777 49.0785C136.777 49.5284 137.145 49.8965 137.595 49.8965C138.044 49.8965 138.413 49.5284 138.413 49.0785C138.413 48.6286 138.044 48.2606 137.595 48.2606ZM142.502 48.2606C142.053 48.2606 141.684 48.6286 141.684 49.0785C141.684 49.5284 142.053 49.8965 142.502 49.8965C142.952 49.8965 143.32 49.5284 143.32 49.0785C143.32 48.6286 142.952 48.2606 142.502 48.2606ZM140.049 48.2606C139.599 48.2606 139.231 48.6286 139.231 49.0785C139.231 49.5284 139.599 49.8965 140.049 49.8965C140.498 49.8965 140.866 49.5284 140.866 49.0785C140.866 48.6286 140.498 48.2606 140.049 48.2606Z" fill="#19171C"/>
<mask id="mask5_827_117" style="mask-type:luminance" maskUnits="userSpaceOnUse" x="1" y="68" width="156" height="49">
<path d="M156.402 68.7097H1.40234V116.71H156.402V68.7097Z" fill="white"/>
<path d="M1.40234 68.7097H155.999V115.334H1.40234V68.7097Z" fill="black"/>
</mask>
<g mask="url(#mask5_827_117)">
<path d="M155.999 114.721H1.40234V115.948H155.999V114.721Z" fill="#F2F1F3"/>
</g>
<path d="M12.8398 87.8171V93.6173H11.7891V87.8171H12.8398ZM14.9575 91.0684V93.6173H13.9323V89.2672H14.9122V90.0063H14.9631C15.0632 89.7628 15.2228 89.5692 15.4418 89.4258C15.6627 89.2823 15.9355 89.2105 16.2603 89.2105C16.5605 89.2105 16.822 89.2747 17.0448 89.4031C17.2694 89.5315 17.4431 89.7175 17.5659 89.961C17.6905 90.2046 17.7518 90.5001 17.7499 90.8475V93.6173H16.7247V91.0061C16.7247 90.7153 16.6492 90.4878 16.4982 90.3235C16.349 90.1593 16.1423 90.0771 15.8779 90.0771C15.6986 90.0771 15.539 90.1168 15.3993 90.1961C15.2615 90.2735 15.1529 90.3858 15.0736 90.5331C14.9962 90.6804 14.9575 90.8588 14.9575 91.0684ZM18.7922 93.6173V89.2672H19.8174V93.6173H18.7922ZM19.3076 88.6498C19.1452 88.6498 19.0055 88.5959 18.8885 88.4883C18.7714 88.3788 18.7129 88.2476 18.7129 88.0947C18.7129 87.9398 18.7714 87.8086 18.8885 87.701C19.0055 87.5915 19.1452 87.5367 19.3076 87.5367C19.4719 87.5367 19.6116 87.5915 19.7268 87.701C19.8438 87.8086 19.9024 87.9398 19.9024 88.0947C19.9024 88.2476 19.8438 88.3788 19.7268 88.4883C19.6116 88.5959 19.4719 88.6498 19.3076 88.6498ZM23.0439 89.2672V90.0601H20.5431V89.2672H23.0439ZM21.1605 88.2249H22.1857V92.3088C22.1857 92.4467 22.2065 92.5524 22.2481 92.626C22.2915 92.6978 22.3481 92.7469 22.418 92.7733C22.4878 92.7997 22.5652 92.813 22.6502 92.813C22.7144 92.813 22.7729 92.8082 22.8258 92.7988C22.8806 92.7894 22.9221 92.7809 22.9504 92.7733L23.1232 93.5748C23.0684 93.5937 22.9901 93.6144 22.8881 93.6371C22.788 93.6598 22.6653 93.673 22.5199 93.6768C22.2632 93.6843 22.0319 93.6456 21.8261 93.5606C21.6203 93.4738 21.4569 93.3397 21.3361 93.1585C21.2172 92.9772 21.1586 92.7507 21.1605 92.4788V88.2249ZM23.9013 93.6173V89.2672H24.9265V93.6173H23.9013ZM24.4167 88.6498C24.2544 88.6498 24.1147 88.5959 23.9976 88.4883C23.8805 88.3788 23.822 88.2476 23.822 88.0947C23.822 87.9398 23.8805 87.8086 23.9976 87.701C24.1147 87.5915 24.2544 87.5367 24.4167 87.5367C24.581 87.5367 24.7207 87.5915 24.8359 87.701C24.953 87.8086 25.0115 87.9398 25.0115 88.0947C25.0115 88.2476 24.953 88.3788 24.8359 88.4883C24.7207 88.5959 24.581 88.6498 24.4167 88.6498ZM27.2326 93.7051C26.9569 93.7051 26.7086 93.656 26.4877 93.5578C26.2687 93.4577 26.095 93.3105 25.9666 93.116C25.8401 92.9215 25.7769 92.6817 25.7769 92.3966C25.7769 92.1512 25.8222 91.9482 25.9128 91.7877C26.0034 91.6272 26.1271 91.4989 26.2838 91.4026C26.4405 91.3063 26.6171 91.2336 26.8134 91.1845C27.0117 91.1335 27.2165 91.0967 27.428 91.074C27.6829 91.0476 27.8896 91.024 28.0482 91.0032C28.2068 90.9806 28.322 90.9466 28.3937 90.9013C28.4674 90.8541 28.5042 90.7814 28.5042 90.6832V90.6662C28.5042 90.4529 28.4409 90.2877 28.3144 90.1706C28.1879 90.0535 28.0057 89.995 27.7678 89.995C27.5167 89.995 27.3175 90.0498 27.1703 90.1593C27.0249 90.2688 26.9267 90.3981 26.8757 90.5473L25.9185 90.4113C25.994 90.147 26.1186 89.9261 26.2923 89.7486C26.466 89.5692 26.6784 89.4352 26.9295 89.3465C27.1806 89.2558 27.4582 89.2105 27.7622 89.2105C27.9718 89.2105 28.1804 89.2351 28.3881 89.2841C28.5958 89.3332 28.7855 89.4144 28.9573 89.5277C29.1291 89.6391 29.267 89.7911 29.3708 89.9837C29.4765 90.1763 29.5294 90.417 29.5294 90.7059V93.6173H28.5438V93.0197H28.5099C28.4475 93.1405 28.3598 93.2538 28.2465 93.3596C28.1351 93.4634 27.9944 93.5474 27.8245 93.6116C27.6564 93.6739 27.4591 93.7051 27.2326 93.7051ZM27.4988 92.9517C27.7046 92.9517 27.883 92.9111 28.0341 92.83C28.1851 92.7469 28.3012 92.6374 28.3824 92.5014C28.4655 92.3655 28.507 92.2173 28.507 92.0568V91.5442C28.4749 91.5706 28.4202 91.5952 28.3428 91.6178C28.2672 91.6405 28.1823 91.6603 28.0879 91.6773C27.9935 91.6943 27.9 91.7094 27.8075 91.7226C27.715 91.7358 27.6347 91.7471 27.5668 91.7566C27.4138 91.7773 27.2769 91.8113 27.1561 91.8585C27.0353 91.9057 26.9399 91.9718 26.8701 92.0568C26.8002 92.1399 26.7653 92.2475 26.7653 92.3796C26.7653 92.5685 26.8342 92.711 26.972 92.8073C27.1098 92.9036 27.2854 92.9517 27.4988 92.9517ZM31.5855 87.8171V93.6173H30.5603V87.8171H31.5855ZM38.5037 89.2672L36.9545 93.6173H35.8217L34.2725 89.2672H35.3657L36.3654 92.4986H36.4107L37.4133 89.2672H38.5037ZM40.3403 93.7051C40.0646 93.7051 39.8164 93.656 39.5955 93.5578C39.3764 93.4577 39.2027 93.3105 39.0743 93.116C38.9478 92.9215 38.8846 92.6817 38.8846 92.3966C38.8846 92.1512 38.9299 91.9482 39.0205 91.7877C39.1112 91.6272 39.2348 91.4989 39.3915 91.4026C39.5483 91.3063 39.7248 91.2336 39.9211 91.1845C40.1194 91.1335 40.3242 91.0967 40.5357 91.074C40.7906 91.0476 40.9973 91.024 41.1559 91.0032C41.3145 90.9806 41.4297 90.9466 41.5015 90.9013C41.5751 90.8541 41.6119 90.7814 41.6119 90.6832V90.6662C41.6119 90.4529 41.5487 90.2877 41.4222 90.1706C41.2957 90.0535 41.1135 89.995 40.8756 89.995C40.6245 89.995 40.4253 90.0498 40.278 90.1593C40.1326 90.2688 40.0344 90.3981 39.9835 90.5473L39.0262 90.4113C39.1017 90.147 39.2263 89.9261 39.4 89.7486C39.5737 89.5692 39.7861 89.4352 40.0373 89.3465C40.2884 89.2558 40.5659 89.2105 40.8699 89.2105C41.0795 89.2105 41.2881 89.2351 41.4958 89.2841C41.7035 89.3332 41.8932 89.4144 42.0651 89.5277C42.2369 89.6391 42.3747 89.7911 42.4785 89.9837C42.5843 90.1763 42.6371 90.417 42.6371 90.7059V93.6173H41.6516V93.0197H41.6176C41.5553 93.1405 41.4675 93.2538 41.3542 93.3596C41.2428 93.4634 41.1021 93.5474 40.9322 93.6116C40.7642 93.6739 40.5669 93.7051 40.3403 93.7051ZM40.6065 92.9517C40.8123 92.9517 40.9907 92.9111 41.1418 92.83C41.2928 92.7469 41.4089 92.6374 41.4901 92.5014C41.5732 92.3655 41.6147 92.2173 41.6147 92.0568V91.5442C41.5827 91.5706 41.5279 91.5952 41.4505 91.6178C41.375 91.6405 41.29 91.6603 41.1956 91.6773C41.1012 91.6943 41.0077 91.7094 40.9152 91.7226C40.8227 91.7358 40.7425 91.7471 40.6745 91.7566C40.5216 91.7773 40.3847 91.8113 40.2638 91.8585C40.143 91.9057 40.0476 91.9718 39.9778 92.0568C39.9079 92.1399 39.873 92.2475 39.873 92.3796C39.873 92.5685 39.9419 92.711 40.0797 92.8073C40.2176 92.9036 40.3932 92.9517 40.6065 92.9517ZM44.6933 87.8171V93.6173H43.668V87.8171H44.6933ZM48.5201 91.7877V89.2672H49.5454V93.6173H48.5513V92.8441H48.506C48.4078 93.0877 48.2464 93.2869 48.0217 93.4417C47.7989 93.5965 47.5242 93.6739 47.1976 93.6739C46.9125 93.6739 46.6604 93.6107 46.4414 93.4842C46.2242 93.3558 46.0543 93.1698 45.9316 92.9262C45.8089 92.6808 45.7475 92.3844 45.7475 92.037V89.2672H46.7727V91.8784C46.7727 92.154 46.8483 92.373 46.9993 92.5354C47.1504 92.6978 47.3486 92.779 47.594 92.779C47.7451 92.779 47.8914 92.7422 48.033 92.6685C48.1746 92.5949 48.2907 92.4854 48.3814 92.34C48.4739 92.1927 48.5201 92.0086 48.5201 91.7877ZM52.5255 93.7022C52.0893 93.7022 51.7126 93.6116 51.3954 93.4304C51.0801 93.2472 50.8375 92.9885 50.6676 92.6544C50.4977 92.3183 50.4127 91.9227 50.4127 91.4677C50.4127 91.0202 50.4977 90.6275 50.6676 90.2895C50.8394 89.9497 51.0792 89.6854 51.387 89.4966C51.6947 89.3059 52.0563 89.2105 52.4717 89.2105C52.7398 89.2105 52.9928 89.2539 53.2307 89.3408C53.4704 89.4258 53.6819 89.5579 53.8651 89.7373C54.0501 89.9167 54.1955 90.1451 54.3012 90.4227C54.4069 90.6983 54.4598 91.0268 54.4598 91.4082V91.7226H50.8942V91.0316H53.4771C53.4752 90.8352 53.4327 90.6606 53.3496 90.5076C53.2665 90.3528 53.1504 90.231 53.0013 90.1423C52.854 90.0535 52.6822 90.0092 52.4858 90.0092C52.2762 90.0092 52.0921 90.0601 51.9336 90.1621C51.775 90.2622 51.6513 90.3943 51.5625 90.5586C51.4757 90.721 51.4313 90.8994 51.4294 91.0939V91.6971C51.4294 91.9501 51.4757 92.1672 51.5682 92.3485C51.6607 92.5279 51.7901 92.6657 51.9562 92.762C52.1224 92.8564 52.3168 92.9036 52.5396 92.9036C52.6888 92.9036 52.8238 92.8828 52.9446 92.8413C53.0655 92.7979 53.1702 92.7346 53.259 92.6515C53.3477 92.5685 53.4147 92.4656 53.4601 92.3428L54.4173 92.4504C54.3569 92.7035 54.2417 92.9244 54.0718 93.1132C53.9038 93.3001 53.6885 93.4455 53.4261 93.5493C53.1636 93.6513 52.8634 93.7022 52.5255 93.7022Z" fill="#97979B"/>
<path d="M149.041 82.9364H131.863V100.114H149.041V82.9364Z" fill="#F2F1F3" fill-opacity="0.35"/>
<path d="M143.316 91.9341H140.862V94.388H140.044V91.9341H137.59V91.1161H140.044V88.6622H140.862V91.1161H143.316V91.9341Z" fill="#97979B"/>
<mask id="mask6_827_117" style="mask-type:luminance" maskUnits="userSpaceOnUse" x="1" y="115" width="156" height="66">
<path d="M156.402 115.334H1.40234V180.334H156.402V115.334Z" fill="white"/>
<path d="M1.40234 115.334H155.999V179.136H1.40234V115.334Z" fill="black"/>
</mask>
<g mask="url(#mask6_827_117)">
<path d="M155.999 178.522H1.40234V179.749H155.999V178.522Z" fill="#F2F1F3"/>
</g>
<path d="M11.9219 133.485H12.7602L14.7314 138.299H14.7994L16.7705 133.485H17.6088V139.285H16.9518V134.878H16.8951L15.0826 139.285H14.4482L12.6356 134.878H12.579V139.285H11.9219V133.485ZM20.6937 139.375C20.301 139.375 19.9564 139.282 19.66 139.095C19.3654 138.908 19.1351 138.646 18.9689 138.31C18.8047 137.974 18.7225 137.582 18.7225 137.132C18.7225 136.679 18.8047 136.284 18.9689 135.946C19.1351 135.608 19.3654 135.345 19.66 135.158C19.9564 134.971 20.301 134.878 20.6937 134.878C21.0864 134.878 21.43 134.971 21.7246 135.158C22.021 135.345 22.2514 135.608 22.4156 135.946C22.5818 136.284 22.6648 136.679 22.6648 137.132C22.6648 137.582 22.5818 137.974 22.4156 138.31C22.2514 138.646 22.021 138.908 21.7246 139.095C21.43 139.282 21.0864 139.375 20.6937 139.375ZM20.6937 138.775C20.992 138.775 21.2375 138.698 21.43 138.545C21.6226 138.393 21.7652 138.191 21.8577 137.942C21.9502 137.693 21.9965 137.423 21.9965 137.132C21.9965 136.841 21.9502 136.571 21.8577 136.319C21.7652 136.068 21.6226 135.865 21.43 135.711C21.2375 135.556 20.992 135.478 20.6937 135.478C20.3954 135.478 20.1499 135.556 19.9573 135.711C19.7648 135.865 19.6222 136.068 19.5297 136.319C19.4372 136.571 19.3909 136.841 19.3909 137.132C19.3909 137.423 19.4372 137.693 19.5297 137.942C19.6222 138.191 19.7648 138.393 19.9573 138.545C20.1499 138.698 20.3954 138.775 20.6937 138.775ZM27.0865 134.935L25.4778 139.285H24.7981L23.1895 134.935H23.9145L25.1153 138.401H25.1606L26.3615 134.935H27.0865ZM29.6368 139.375C29.2177 139.375 28.8561 139.283 28.5521 139.098C28.25 138.911 28.0168 138.65 27.8526 138.316C27.6902 137.98 27.609 137.589 27.609 137.144C27.609 136.698 27.6902 136.305 27.8526 135.965C28.0168 135.624 28.2453 135.357 28.5379 135.167C28.8325 134.974 29.1761 134.878 29.5688 134.878C29.7954 134.878 30.0191 134.916 30.24 134.991C30.4609 135.067 30.662 135.189 30.8433 135.359C31.0245 135.527 31.169 135.75 31.2766 136.028C31.3842 136.305 31.438 136.647 31.438 137.053V137.336H28.0848V136.758H30.7583C30.7583 136.513 30.7092 136.294 30.6111 136.101C30.5148 135.909 30.3769 135.757 30.1976 135.645C30.0201 135.534 29.8105 135.478 29.5688 135.478C29.3026 135.478 29.0723 135.544 28.8778 135.677C28.6852 135.807 28.537 135.977 28.4332 136.186C28.3293 136.396 28.2774 136.621 28.2774 136.86V137.246C28.2774 137.574 28.334 137.853 28.4473 138.081C28.5625 138.308 28.722 138.48 28.9259 138.599C29.1299 138.716 29.3668 138.775 29.6368 138.775C29.8124 138.775 29.971 138.75 30.1126 138.701C30.2561 138.65 30.3798 138.575 30.4836 138.475C30.5875 138.373 30.6677 138.246 30.7243 138.095L31.3701 138.276C31.3021 138.495 31.1879 138.688 31.0274 138.854C30.8669 139.018 30.6686 139.147 30.4326 139.239C30.1966 139.33 29.9313 139.375 29.6368 139.375ZM35.1283 133.485L36.6236 135.897H36.6689L38.1643 133.485H38.9913L37.1674 136.385L38.9913 139.285H38.1643L36.6689 136.917H36.6236L35.1283 139.285H34.3013L36.1705 136.385L34.3013 133.485H35.1283Z" fill="#97979B"/>
<path d="M151.094 126.377H77.4766V146.008H151.094V126.377Z" fill="#F2F1F3" fill-opacity="0.35"/>
<path d="M87.7266 138.336V137.628L90.233 133.669H90.7909V134.711H90.4369L88.6442 137.549V137.594H92.0795V138.336H87.7266ZM90.4766 139.469V138.121L90.4822 137.798V133.669H91.312V139.469H90.4766ZM95.0858 139.565C94.6384 139.564 94.256 139.446 93.9388 139.211C93.6216 138.977 93.379 138.637 93.211 138.189C93.0429 137.742 92.9589 137.203 92.9589 136.572C92.9589 135.943 93.0429 135.406 93.211 134.96C93.3809 134.515 93.6245 134.175 93.9417 133.941C94.2607 133.707 94.6421 133.59 95.0858 133.59C95.5295 133.59 95.91 133.708 96.2272 133.944C96.5444 134.178 96.787 134.518 96.955 134.963C97.125 135.407 97.2099 135.943 97.2099 136.572C97.2099 137.204 97.1259 137.744 96.9579 138.192C96.7898 138.637 96.5472 138.978 96.23 139.214C95.9128 139.448 95.5314 139.565 95.0858 139.565ZM95.0858 138.809C95.4785 138.809 95.7854 138.618 96.0063 138.234C96.2291 137.851 96.3405 137.297 96.3405 136.572C96.3405 136.09 96.2895 135.684 96.1875 135.351C96.0875 135.017 95.943 134.764 95.7542 134.592C95.5673 134.419 95.3445 134.332 95.0858 134.332C94.695 134.332 94.3882 134.524 94.1654 134.909C93.9426 135.295 93.8303 135.849 93.8284 136.572C93.8284 137.055 93.8784 137.464 93.9785 137.798C94.0804 138.131 94.2249 138.383 94.4118 138.554C94.5987 138.724 94.8234 138.809 95.0858 138.809Z" fill="#19171C"/>
<path d="M11.9219 155.57H12.7602L14.7314 160.385H14.7994L16.7705 155.57H17.6088V161.37H16.9518V156.964H16.8951L15.0826 161.37H14.4482L12.6356 156.964H12.579V161.37H11.9219V155.57ZM20.6937 161.461C20.301 161.461 19.9564 161.367 19.66 161.181C19.3654 160.994 19.1351 160.732 18.9689 160.396C18.8047 160.06 18.7225 159.667 18.7225 159.218C18.7225 158.765 18.8047 158.369 18.9689 158.031C19.1351 157.693 19.3654 157.431 19.66 157.244C19.9564 157.057 20.301 156.964 20.6937 156.964C21.0864 156.964 21.43 157.057 21.7246 157.244C22.021 157.431 22.2514 157.693 22.4156 158.031C22.5818 158.369 22.6648 158.765 22.6648 159.218C22.6648 159.667 22.5818 160.06 22.4156 160.396C22.2514 160.732 22.021 160.994 21.7246 161.181C21.43 161.367 21.0864 161.461 20.6937 161.461ZM20.6937 160.861C20.992 160.861 21.2375 160.784 21.43 160.631C21.6226 160.478 21.7652 160.277 21.8577 160.028C21.9502 159.779 21.9965 159.509 21.9965 159.218C21.9965 158.927 21.9502 158.656 21.8577 158.405C21.7652 158.154 21.6226 157.951 21.43 157.796C21.2375 157.641 20.992 157.564 20.6937 157.564C20.3954 157.564 20.1499 157.641 19.9573 157.796C19.7648 157.951 19.6222 158.154 19.5297 158.405C19.4372 158.656 19.3909 158.927 19.3909 159.218C19.3909 159.509 19.4372 159.779 19.5297 160.028C19.6222 160.277 19.7648 160.478 19.9573 160.631C20.1499 160.784 20.3954 160.861 20.6937 160.861ZM27.0865 157.02L25.4778 161.37H24.7981L23.1895 157.02H23.9145L25.1153 160.487H25.1606L26.3615 157.02H27.0865ZM29.6368 161.461C29.2177 161.461 28.8561 161.368 28.5521 161.183C28.25 160.996 28.0168 160.736 27.8526 160.402C27.6902 160.066 27.609 159.675 27.609 159.229C27.609 158.784 27.6902 158.391 27.8526 158.051C28.0168 157.709 28.2453 157.443 28.5379 157.252C28.8325 157.06 29.1761 156.964 29.5688 156.964C29.7954 156.964 30.0191 157.001 30.24 157.077C30.4609 157.152 30.662 157.275 30.8433 157.445C31.0245 157.613 31.169 157.836 31.2766 158.113C31.3842 158.391 31.438 158.733 31.438 159.139V159.422H28.0848V158.844H30.7583C30.7583 158.599 30.7092 158.38 30.6111 158.187C30.5148 157.994 30.3769 157.842 30.1976 157.731C30.0201 157.62 29.8105 157.564 29.5688 157.564C29.3026 157.564 29.0723 157.63 28.8778 157.762C28.6852 157.892 28.537 158.062 28.4332 158.272C28.3293 158.482 28.2774 158.706 28.2774 158.946V159.331C28.2774 159.66 28.334 159.938 28.4473 160.167C28.5625 160.393 28.722 160.566 28.9259 160.685C29.1299 160.802 29.3668 160.861 29.6368 160.861C29.8124 160.861 29.971 160.836 30.1126 160.787C30.2561 160.736 30.3798 160.66 30.4836 160.56C30.5875 160.458 30.6677 160.332 30.7243 160.181L31.3701 160.362C31.3021 160.581 31.1879 160.774 31.0274 160.94C30.8669 161.104 30.6686 161.232 30.4326 161.325C30.1966 161.416 29.9313 161.461 29.6368 161.461ZM34.29 155.57H35.0943L36.7029 158.278H36.7709L38.3795 155.57H39.1839L37.0881 158.98V161.37H36.3857V158.98L34.29 155.57Z" fill="#97979B"/>
<path d="M151.094 148.462H77.4766V168.093H151.094V148.462Z" fill="#F2F1F3" fill-opacity="0.35"/>
<path d="M89.8692 161.651C89.4217 161.649 89.0394 161.531 88.7222 161.297C88.405 161.063 88.1623 160.722 87.9943 160.274C87.8263 159.827 87.7422 159.288 87.7422 158.657C87.7422 158.029 87.8263 157.491 87.9943 157.046C88.1642 156.6 88.4078 156.26 88.725 156.026C89.0441 155.792 89.4255 155.675 89.8692 155.675C90.3129 155.675 90.6933 155.793 91.0105 156.029C91.3277 156.263 91.5703 156.603 91.7384 157.049C91.9083 157.492 91.9932 158.029 91.9932 158.657C91.9932 159.29 91.9092 159.83 91.7412 160.277C91.5731 160.723 91.3305 161.064 91.0133 161.3C90.6961 161.534 90.3147 161.651 89.8692 161.651ZM89.8692 160.895C90.2619 160.895 90.5687 160.703 90.7896 160.32C91.0124 159.937 91.1238 159.382 91.1238 158.657C91.1238 158.176 91.0728 157.769 90.9709 157.437C90.8708 157.102 90.7263 156.849 90.5375 156.678C90.3506 156.504 90.1278 156.417 89.8692 156.417C89.4783 156.417 89.1715 156.61 88.9487 156.995C88.7259 157.38 88.6136 157.934 88.6117 158.657C88.6117 159.141 88.6617 159.549 88.7618 159.884C88.8638 160.216 89.0082 160.468 89.1951 160.64C89.382 160.81 89.6067 160.895 89.8692 160.895Z" fill="#19171C"/>
<mask id="mask7_827_117" style="mask-type:luminance" maskUnits="userSpaceOnUse" x="1" y="179" width="156" height="93">
<path d="M156.402 179.136H1.40234V271.136H156.402V179.136Z" fill="white"/>
<path d="M1.40234 179.136H155.999V269.931H1.40234V179.136Z" fill="black"/>
</mask>
<g mask="url(#mask7_827_117)">
<path d="M155.999 269.317H1.40234V270.544H155.999V269.317Z" fill="#F2F1F3"/>
</g>
<path d="M12.5356 205.541H11.4141L13.456 199.74H14.7531L16.7979 205.541H15.6764L14.1273 200.93H14.0819L12.5356 205.541ZM12.5724 203.266H15.6311V204.11H12.5724V203.266ZM18.5418 202.992V205.541H17.5166V201.19H18.4965V201.93H18.5475C18.6475 201.686 18.8071 201.493 19.0261 201.349C19.247 201.206 19.5198 201.134 19.8446 201.134C20.1448 201.134 20.4063 201.198 20.6291 201.326C20.8538 201.455 21.0275 201.641 21.1502 201.884C21.2748 202.128 21.3362 202.423 21.3343 202.771V205.541H20.309V202.929C20.309 202.639 20.2335 202.411 20.0825 202.247C19.9333 202.083 19.7266 202 19.4622 202C19.2829 202 19.1233 202.04 18.9836 202.119C18.8458 202.197 18.7372 202.309 18.6579 202.456C18.5805 202.604 18.5418 202.782 18.5418 202.992ZM22.3765 205.541V201.19H23.4017V205.541H22.3765ZM22.8919 200.573C22.7296 200.573 22.5898 200.519 22.4728 200.412C22.3557 200.302 22.2972 200.171 22.2972 200.018C22.2972 199.863 22.3557 199.732 22.4728 199.624C22.5898 199.515 22.7296 199.46 22.8919 199.46C23.0562 199.46 23.1959 199.515 23.3111 199.624C23.4281 199.732 23.4867 199.863 23.4867 200.018C23.4867 200.171 23.4281 200.302 23.3111 200.412C23.1959 200.519 23.0562 200.573 22.8919 200.573ZM24.456 205.541V201.19H25.4359V201.93H25.4869C25.5775 201.68 25.7276 201.486 25.9372 201.346C26.1467 201.205 26.3969 201.134 26.6877 201.134C26.9822 201.134 27.2305 201.206 27.4325 201.349C27.6364 201.491 27.7799 201.684 27.863 201.93H27.9083C28.0046 201.688 28.167 201.495 28.3954 201.352C28.6258 201.207 28.8986 201.134 29.2139 201.134C29.6142 201.134 29.9408 201.26 30.1938 201.513C30.4468 201.766 30.5733 202.135 30.5733 202.621V205.541H29.5453V202.779C29.5453 202.509 29.4735 202.312 29.33 202.187C29.1865 202.061 29.011 201.998 28.8033 201.998C28.5559 201.998 28.3624 202.075 28.2227 202.23C28.0848 202.383 28.0159 202.582 28.0159 202.827V205.541H27.0105V202.737C27.0105 202.512 26.9426 202.333 26.8066 202.199C26.6726 202.065 26.497 201.998 26.2798 201.998C26.1326 201.998 25.9985 202.035 25.8777 202.111C25.7569 202.185 25.6606 202.289 25.5888 202.425C25.5171 202.559 25.4812 202.716 25.4812 202.895V205.541H24.456ZM32.8652 205.628C32.5896 205.628 32.3413 205.579 32.1204 205.481C31.9014 205.381 31.7277 205.234 31.5993 205.039C31.4728 204.845 31.4095 204.605 31.4095 204.32C31.4095 204.074 31.4548 203.872 31.5455 203.711C31.6361 203.551 31.7598 203.422 31.9165 203.326C32.0732 203.23 32.2497 203.157 32.4461 203.108C32.6443 203.057 32.8492 203.02 33.0606 202.997C33.3155 202.971 33.5223 202.947 33.6809 202.927C33.8395 202.904 33.9546 202.87 34.0264 202.825C34.1 202.777 34.1368 202.705 34.1368 202.607V202.59C34.1368 202.376 34.0736 202.211 33.9471 202.094C33.8206 201.977 33.6384 201.918 33.4005 201.918C33.1494 201.918 32.9502 201.973 32.8029 202.083C32.6575 202.192 32.5594 202.321 32.5084 202.471L31.5511 202.335C31.6266 202.07 31.7513 201.849 31.925 201.672C32.0987 201.493 32.3111 201.359 32.5622 201.27C32.8133 201.179 33.0908 201.134 33.3948 201.134C33.6044 201.134 33.813 201.158 34.0207 201.207C34.2284 201.257 34.4182 201.338 34.59 201.451C34.7618 201.562 34.8996 201.714 35.0035 201.907C35.1092 202.1 35.1621 202.34 35.1621 202.629V205.541H34.1765V204.943H34.1425C34.0802 205.064 33.9924 205.177 33.8791 205.283C33.7677 205.387 33.6271 205.471 33.4571 205.535C33.2891 205.597 33.0918 205.628 32.8652 205.628ZM33.1314 204.875C33.3372 204.875 33.5157 204.834 33.6667 204.753C33.8178 204.67 33.9339 204.561 34.0151 204.425C34.0981 204.289 34.1397 204.141 34.1397 203.98V203.467C34.1076 203.494 34.0528 203.518 33.9754 203.541C33.8999 203.564 33.8149 203.584 33.7205 203.601C33.6261 203.618 33.5327 203.633 33.4401 203.646C33.3476 203.659 33.2674 203.67 33.1994 203.68C33.0465 203.701 32.9096 203.735 32.7888 203.782C32.6679 203.829 32.5726 203.895 32.5027 203.98C32.4329 204.063 32.3979 204.171 32.3979 204.303C32.3979 204.492 32.4668 204.634 32.6047 204.731C32.7425 204.827 32.9181 204.875 33.1314 204.875ZM38.3652 201.19V201.983H35.8644V201.19H38.3652ZM36.4818 200.148H37.5071V204.232C37.5071 204.37 37.5278 204.476 37.5694 204.549C37.6128 204.621 37.6694 204.67 37.7393 204.697C37.8091 204.723 37.8866 204.736 37.9715 204.736C38.0357 204.736 38.0942 204.732 38.1471 204.722C38.2019 204.713 38.2434 204.704 38.2717 204.697L38.4445 205.498C38.3897 205.517 38.3114 205.538 38.2094 205.56C38.1093 205.583 37.9866 205.596 37.8412 205.6C37.5845 205.608 37.3532 205.569 37.1474 205.484C36.9416 205.397 36.7783 205.263 36.6574 205.082C36.5385 204.901 36.4799 204.674 36.4818 204.402V200.148ZM39.2226 205.541V201.19H40.2478V205.541H39.2226ZM39.7381 200.573C39.5757 200.573 39.436 200.519 39.3189 200.412C39.2018 200.302 39.1433 200.171 39.1433 200.018C39.1433 199.863 39.2018 199.732 39.3189 199.624C39.436 199.515 39.5757 199.46 39.7381 199.46C39.9023 199.46 40.042 199.515 40.1572 199.624C40.2743 199.732 40.3328 199.863 40.3328 200.018C40.3328 200.171 40.2743 200.302 40.1572 200.412C40.042 200.519 39.9023 200.573 39.7381 200.573ZM43.1996 205.626C42.7748 205.626 42.4066 205.532 42.0951 205.345C41.7835 205.158 41.5419 204.897 41.3701 204.561C41.2001 204.225 41.1152 203.832 41.1152 203.383C41.1152 202.933 41.2001 202.539 41.3701 202.202C41.5419 201.864 41.7835 201.601 42.0951 201.414C42.4066 201.227 42.7748 201.134 43.1996 201.134C43.6244 201.134 43.9926 201.227 44.3041 201.414C44.6157 201.601 44.8564 201.864 45.0263 202.202C45.1981 202.539 45.284 202.933 45.284 203.383C45.284 203.832 45.1981 204.225 45.0263 204.561C44.8564 204.897 44.6157 205.158 44.3041 205.345C43.9926 205.532 43.6244 205.626 43.1996 205.626ZM43.2053 204.804C43.4356 204.804 43.6282 204.741 43.783 204.614C43.9378 204.486 44.053 204.314 44.1285 204.099C44.2059 203.884 44.2447 203.644 44.2447 203.38C44.2447 203.113 44.2059 202.873 44.1285 202.657C44.053 202.44 43.9378 202.268 43.783 202.139C43.6282 202.011 43.4356 201.947 43.2053 201.947C42.9693 201.947 42.7729 202.011 42.6162 202.139C42.4614 202.268 42.3452 202.44 42.2678 202.657C42.1923 202.873 42.1546 203.113 42.1546 203.38C42.1546 203.644 42.1923 203.884 42.2678 204.099C42.3452 204.314 42.4614 204.486 42.6162 204.614C42.7729 204.741 42.9693 204.804 43.2053 204.804ZM47.1794 202.992V205.541H46.1542V201.19H47.1341V201.93H47.1851C47.2852 201.686 47.4447 201.493 47.6637 201.349C47.8846 201.206 48.1575 201.134 48.4822 201.134C48.7824 201.134 49.0439 201.198 49.2667 201.326C49.4914 201.455 49.6651 201.641 49.7878 201.884C49.9124 202.128 49.9738 202.423 49.9719 202.771V205.541H48.9467V202.929C48.9467 202.639 48.8711 202.411 48.7201 202.247C48.5709 202.083 48.3642 202 48.0999 202C47.9205 202 47.761 202.04 47.6212 202.119C47.4834 202.197 47.3748 202.309 47.2955 202.456C47.2181 202.604 47.1794 202.782 47.1794 202.992Z" fill="#19171C"/>
<path d="M13.7118 230.079H11.9219V224.279H13.7911C14.3538 224.279 14.8352 224.395 15.2355 224.627C15.6358 224.858 15.9426 225.189 16.1559 225.622C16.3693 226.052 16.476 226.567 16.476 227.168C16.476 227.772 16.3684 228.292 16.1531 228.728C15.9379 229.163 15.6245 229.497 15.2129 229.731C14.8013 229.963 14.3009 230.079 13.7118 230.079ZM12.6243 229.456H13.6665C14.1461 229.456 14.5435 229.364 14.8588 229.179C15.1741 228.994 15.4092 228.73 15.564 228.389C15.7189 228.047 15.7963 227.64 15.7963 227.168C15.7963 226.7 15.7198 226.297 15.5669 225.959C15.4139 225.619 15.1855 225.358 14.8815 225.177C14.5775 224.994 14.199 224.902 13.7458 224.902H12.6243V229.456ZM20.305 228.301V225.729H20.9734V230.079H20.305V229.343H20.2597C20.1577 229.564 19.9991 229.752 19.7839 229.907C19.5686 230.059 19.2968 230.136 18.9682 230.136C18.6964 230.136 18.4547 230.076 18.2432 229.958C18.0317 229.837 17.8656 229.655 17.7448 229.414C17.6239 229.17 17.5635 228.863 17.5635 228.493V225.729H18.2319V228.448C18.2319 228.765 18.3206 229.018 18.4981 229.207C18.6775 229.396 18.9059 229.49 19.1835 229.49C19.3496 229.49 19.5186 229.448 19.6904 229.363C19.8641 229.278 20.0095 229.148 20.1266 228.972C20.2455 228.796 20.305 228.573 20.305 228.301ZM22.1976 230.079V225.729H22.8433V226.386H22.8886C22.9679 226.171 23.1114 225.996 23.3191 225.862C23.5268 225.728 23.7609 225.661 24.0214 225.661C24.0705 225.661 24.1319 225.662 24.2055 225.664C24.2792 225.666 24.3349 225.669 24.3726 225.673V226.352C24.35 226.347 24.298 226.338 24.2168 226.327C24.1375 226.314 24.0535 226.307 23.9648 226.307C23.7533 226.307 23.5645 226.351 23.3984 226.44C23.2341 226.527 23.1038 226.648 23.0075 226.803C22.9131 226.955 22.8659 227.13 22.8659 227.326V230.079H22.1976ZM26.445 230.181C26.1694 230.181 25.9192 230.129 25.6945 230.025C25.4698 229.92 25.2914 229.768 25.1592 229.57C25.0271 229.369 24.961 229.128 24.961 228.844C24.961 228.595 25.0101 228.393 25.1083 228.238C25.2064 228.082 25.3377 227.959 25.5019 227.87C25.6662 227.782 25.8474 227.715 26.0457 227.672C26.2458 227.627 26.4469 227.591 26.6489 227.564C26.9133 227.53 27.1276 227.505 27.2918 227.488C27.458 227.469 27.5788 227.438 27.6543 227.394C27.7317 227.351 27.7704 227.276 27.7704 227.168V227.145C27.7704 226.866 27.694 226.649 27.541 226.494C27.39 226.339 27.1606 226.262 26.8528 226.262C26.5338 226.262 26.2836 226.331 26.1023 226.471C25.9211 226.611 25.7936 226.76 25.72 226.919L25.0856 226.692C25.1989 226.428 25.3499 226.222 25.5387 226.075C25.7294 225.926 25.9371 225.822 26.1618 225.763C26.3884 225.703 26.6112 225.673 26.8302 225.673C26.9699 225.673 27.1304 225.69 27.3116 225.724C27.4948 225.756 27.6713 225.823 27.8412 225.925C28.0131 226.027 28.1556 226.18 28.2689 226.386C28.3822 226.592 28.4388 226.868 28.4388 227.213V230.079H27.7704V229.49H27.7365C27.6911 229.585 27.6156 229.686 27.5099 229.793C27.4042 229.901 27.2635 229.992 27.0879 230.068C26.9123 230.143 26.698 230.181 26.445 230.181ZM26.547 229.581C26.8113 229.581 27.0341 229.529 27.2153 229.425C27.3985 229.321 27.5363 229.187 27.6288 229.023C27.7232 228.859 27.7704 228.686 27.7704 228.505V227.893C27.7421 227.927 27.6798 227.958 27.5835 227.986C27.4891 228.013 27.3796 228.036 27.255 228.057C27.1323 228.076 27.0124 228.093 26.8953 228.108C26.7801 228.121 26.6867 228.133 26.6149 228.142C26.4412 228.165 26.2789 228.202 26.1278 228.253C25.9787 228.302 25.8578 228.376 25.7653 228.476C25.6747 228.575 25.6294 228.709 25.6294 228.878C25.6294 229.111 25.7153 229.286 25.8871 229.405C26.0608 229.522 26.2808 229.581 26.547 229.581ZM31.5506 225.729V226.296H29.2962V225.729H31.5506ZM29.9533 224.687H30.6217V228.833C30.6217 229.022 30.649 229.164 30.7038 229.258C30.7604 229.351 30.8322 229.413 30.919 229.445C31.0078 229.475 31.1012 229.49 31.1994 229.49C31.2731 229.49 31.3335 229.486 31.3807 229.479C31.4279 229.469 31.4656 229.462 31.494 229.456L31.6299 230.057C31.5846 230.074 31.5213 230.091 31.4402 230.108C31.359 230.127 31.2561 230.136 31.1315 230.136C30.9426 230.136 30.7576 230.095 30.5764 230.014C30.397 229.933 30.2478 229.809 30.1289 229.643C30.0118 229.477 29.9533 229.267 29.9533 229.014V224.687ZM32.556 230.079V225.729H33.2244V230.079H32.556ZM32.8959 225.004C32.7656 225.004 32.6532 224.96 32.5588 224.871C32.4663 224.782 32.4201 224.676 32.4201 224.551C32.4201 224.426 32.4663 224.32 32.5588 224.231C32.6532 224.142 32.7656 224.098 32.8959 224.098C33.0261 224.098 33.1375 224.142 33.23 224.231C33.3245 224.32 33.3717 224.426 33.3717 224.551C33.3717 224.676 33.3245 224.782 33.23 224.871C33.1375 224.96 33.0261 225.004 32.8959 225.004ZM36.2158 230.17C35.8231 230.17 35.4785 230.076 35.1821 229.89C34.8875 229.703 34.6572 229.441 34.491 229.105C34.3268 228.769 34.2447 228.376 34.2447 227.927C34.2447 227.474 34.3268 227.078 34.491 226.74C34.6572 226.402 34.8875 226.14 35.1821 225.953C35.4785 225.766 35.8231 225.673 36.2158 225.673C36.6085 225.673 36.9522 225.766 37.2467 225.953C37.5431 226.14 37.7735 226.402 37.9377 226.74C38.1039 227.078 38.187 227.474 38.187 227.927C38.187 228.376 38.1039 228.769 37.9377 229.105C37.7735 229.441 37.5431 229.703 37.2467 229.89C36.9522 230.076 36.6085 230.17 36.2158 230.17ZM36.2158 229.57C36.5141 229.57 36.7596 229.493 36.9522 229.34C37.1447 229.187 37.2873 228.986 37.3798 228.737C37.4723 228.488 37.5186 228.218 37.5186 227.927C37.5186 227.636 37.4723 227.365 37.3798 227.114C37.2873 226.863 37.1447 226.66 36.9522 226.505C36.7596 226.35 36.5141 226.273 36.2158 226.273C35.9175 226.273 35.672 226.35 35.4795 226.505C35.2869 226.66 35.1443 226.863 35.0518 227.114C34.9593 227.365 34.913 227.636 34.913 227.927C34.913 228.218 34.9593 228.488 35.0518 228.737C35.1443 228.986 35.2869 229.187 35.4795 229.34C35.672 229.493 35.9175 229.57 36.2158 229.57ZM39.8756 227.462V230.079H39.2072V225.729H39.8529V226.409H39.9096C40.0115 226.188 40.1664 226.01 40.3741 225.876C40.5817 225.741 40.8498 225.673 41.1784 225.673C41.4729 225.673 41.7306 225.733 41.9515 225.854C42.1724 225.973 42.3443 226.154 42.467 226.398C42.5897 226.639 42.6511 226.945 42.6511 227.315V230.079H41.9827V227.36C41.9827 227.019 41.894 226.753 41.7165 226.562C41.539 226.369 41.2954 226.273 40.9858 226.273C40.7724 226.273 40.5817 226.319 40.4137 226.412C40.2476 226.504 40.1163 226.639 40.02 226.817C39.9237 226.994 39.8756 227.209 39.8756 227.462Z" fill="#97979B"/>
<path d="M151.092 217.172H60.2969V236.803H151.092V217.172Z" fill="#F2F1F3" fill-opacity="0.35"/>
<path d="M72.87 224.464V230.264H71.992V225.342H71.958L70.5703 226.248V225.41L72.0175 224.464H72.87ZM76.4583 230.36C76.0108 230.358 75.6285 230.24 75.3113 230.006C74.9941 229.772 74.7514 229.431 74.5834 228.984C74.4154 228.536 74.3314 227.997 74.3314 227.367C74.3314 226.738 74.4154 226.201 74.5834 225.755C74.7533 225.31 74.9969 224.97 75.3141 224.736C75.6332 224.501 76.0146 224.384 76.4583 224.384C76.902 224.384 77.2824 224.502 77.5996 224.738C77.9168 224.972 78.1594 225.312 78.3275 225.758C78.4974 226.202 78.5824 226.738 78.5824 227.367C78.5824 227.999 78.4983 228.539 78.3303 228.987C78.1623 229.432 77.9196 229.773 77.6024 230.009C77.2852 230.243 76.9039 230.36 76.4583 230.36ZM76.4583 229.604C76.851 229.604 77.1578 229.412 77.3787 229.029C77.6015 228.646 77.7129 228.092 77.7129 227.367C77.7129 226.885 77.6619 226.478 77.56 226.146C77.4599 225.812 77.3155 225.559 77.1266 225.387C76.9397 225.213 76.7169 225.126 76.4583 225.126C76.0674 225.126 75.7606 225.319 75.5378 225.704C75.315 226.089 75.2027 226.643 75.2008 227.367C75.2008 227.85 75.2508 228.259 75.3509 228.593C75.4529 228.925 75.5973 229.177 75.7842 229.349C75.9711 229.519 76.1958 229.604 76.4583 229.604ZM81.6063 230.36C81.1589 230.358 80.7765 230.24 80.4593 230.006C80.1421 229.772 79.8995 229.431 79.7315 228.984C79.5634 228.536 79.4794 227.997 79.4794 227.367C79.4794 226.738 79.5634 226.201 79.7315 225.755C79.9014 225.31 80.145 224.97 80.4622 224.736C80.7813 224.501 81.1626 224.384 81.6063 224.384C82.05 224.384 82.4305 224.502 82.7477 224.738C83.0649 224.972 83.3075 225.312 83.4755 225.758C83.6455 226.202 83.7304 226.738 83.7304 227.367C83.7304 227.999 83.6464 228.539 83.4784 228.987C83.3103 229.432 83.0677 229.773 82.7505 230.009C82.4333 230.243 82.0519 230.36 81.6063 230.36ZM81.6063 229.604C81.9991 229.604 82.3059 229.412 82.5268 229.029C82.7496 228.646 82.861 228.092 82.861 227.367C82.861 226.885 82.81 226.478 82.708 226.146C82.608 225.812 82.4635 225.559 82.2747 225.387C82.0878 225.213 81.865 225.126 81.6063 225.126C81.2155 225.126 80.9087 225.319 80.6859 225.704C80.4631 226.089 80.3508 226.643 80.3489 227.367C80.3489 227.85 80.3989 228.259 80.499 228.593C80.6009 228.925 80.7454 229.177 80.9323 229.349C81.1192 229.519 81.3439 229.604 81.6063 229.604ZM84.7464 230.264V225.914H85.5593V226.622H85.6131C85.7037 226.382 85.8519 226.195 86.0577 226.061C86.2635 225.925 86.5099 225.857 86.7969 225.857C87.0877 225.857 87.3312 225.925 87.5276 226.061C87.7258 226.197 87.8722 226.384 87.9666 226.622H88.0119C88.1157 226.389 88.2809 226.204 88.5075 226.067C88.7341 225.927 89.0041 225.857 89.3175 225.857C89.7121 225.857 90.034 225.981 90.2832 226.228C90.5343 226.475 90.6599 226.848 90.6599 227.347V230.264H89.8131V227.426C89.8131 227.132 89.7329 226.918 89.5724 226.786C89.4119 226.654 89.2202 226.588 88.9974 226.588C88.7218 226.588 88.5075 226.673 88.3546 226.843C88.2016 227.011 88.1252 227.227 88.1252 227.491V230.264H87.2812V227.372C87.2812 227.136 87.2076 226.946 87.0603 226.803C86.913 226.659 86.7214 226.588 86.4854 226.588C86.3249 226.588 86.1767 226.63 86.0407 226.715C85.9067 226.798 85.7981 226.914 85.715 227.064C85.6338 227.213 85.5932 227.385 85.5932 227.582V230.264H84.7464ZM95.0546 226.976L94.2871 227.112C94.255 227.014 94.2041 226.92 94.1342 226.831C94.0662 226.743 93.9737 226.67 93.8566 226.613C93.7396 226.557 93.5933 226.528 93.4177 226.528C93.1779 226.528 92.9777 226.582 92.8173 226.69C92.6568 226.795 92.5765 226.932 92.5765 227.1C92.5765 227.246 92.6303 227.363 92.738 227.452C92.8456 227.54 93.0193 227.613 93.2591 227.67L93.9501 227.828C94.3504 227.921 94.6487 228.063 94.8451 228.256C95.0414 228.448 95.1396 228.699 95.1396 229.006C95.1396 229.267 95.0641 229.499 94.913 229.703C94.7639 229.905 94.5552 230.064 94.2871 230.179C94.0209 230.294 93.7122 230.352 93.361 230.352C92.8739 230.352 92.4765 230.248 92.1687 230.04C91.861 229.831 91.6721 229.533 91.6023 229.148L92.4208 229.023C92.4717 229.237 92.5765 229.398 92.7351 229.508C92.8937 229.615 93.1005 229.669 93.3554 229.669C93.6329 229.669 93.8548 229.611 94.0209 229.496C94.1871 229.379 94.2701 229.237 94.2701 229.069C94.2701 228.933 94.2192 228.819 94.1172 228.726C94.0171 228.633 93.8633 228.564 93.6556 228.516L92.9192 228.355C92.5133 228.262 92.2131 228.115 92.0186 227.913C91.826 227.711 91.7297 227.455 91.7297 227.146C91.7297 226.889 91.8015 226.664 91.945 226.472C92.0885 226.279 92.2867 226.129 92.5397 226.021C92.7927 225.912 93.0825 225.857 93.4092 225.857C93.8793 225.857 94.2494 225.959 94.5194 226.163C94.7894 226.365 94.9678 226.636 95.0546 226.976Z" fill="#19171C"/>
<path d="M129.007 239.257H60.2969V258.888H129.007V239.257Z" fill="#FAFAFB"/>
<path d="M75.4315 246.365V252.165H74.6272L71.679 247.911H71.6251V252.165H70.75V246.365H71.56L74.5111 250.624H74.5649V246.365H75.4315ZM77.9061 252.261C77.6304 252.261 77.3812 252.21 77.1584 252.108C76.9356 252.004 76.7591 251.854 76.6288 251.658C76.5004 251.462 76.4362 251.221 76.4362 250.936C76.4362 250.69 76.4834 250.488 76.5778 250.33C76.6722 250.171 76.7996 250.045 76.9601 249.953C77.1206 249.86 77.3 249.791 77.4982 249.743C77.6965 249.696 77.8985 249.66 78.1043 249.636C78.3649 249.606 78.5763 249.581 78.7387 249.562C78.9011 249.541 79.0191 249.508 79.0927 249.463C79.1664 249.418 79.2032 249.344 79.2032 249.242V249.222C79.2032 248.975 79.1333 248.783 78.9936 248.647C78.8558 248.511 78.65 248.443 78.3762 248.443C78.0911 248.443 77.8664 248.507 77.7021 248.633C77.5398 248.758 77.4274 248.897 77.3651 249.05L76.5693 248.868C76.6637 248.604 76.8015 248.391 76.9828 248.228C77.1659 248.064 77.3765 247.945 77.6144 247.871C77.8523 247.796 78.1024 247.758 78.3649 247.758C78.5386 247.758 78.7227 247.779 78.9171 247.82C79.1135 247.86 79.2966 247.934 79.4666 248.041C79.6384 248.149 79.779 248.303 79.8885 248.503C79.998 248.701 80.0528 248.959 80.0528 249.276V252.165H79.2258V251.57H79.1918C79.1371 251.68 79.055 251.787 78.9454 251.893C78.8359 251.999 78.6953 252.086 78.5235 252.156C78.3516 252.226 78.1458 252.261 77.9061 252.261ZM78.0901 251.581C78.3243 251.581 78.5244 251.535 78.6906 251.443C78.8586 251.35 78.986 251.229 79.0729 251.08C79.1616 250.929 79.206 250.768 79.206 250.596V250.035C79.1758 250.065 79.1173 250.094 79.0304 250.12C78.9454 250.145 78.8482 250.166 78.7387 250.185C78.6292 250.202 78.5225 250.218 78.4187 250.233C78.3148 250.247 78.228 250.258 78.1581 250.267C77.9939 250.288 77.8438 250.323 77.7078 250.372C77.5738 250.421 77.4661 250.492 77.385 250.585C77.3057 250.675 77.266 250.796 77.266 250.947C77.266 251.157 77.3434 251.315 77.4982 251.423C77.6531 251.529 77.8504 251.581 78.0901 251.581ZM83.2113 247.815V248.494H80.8352V247.815H83.2113ZM81.4724 246.772H82.3192V250.888C82.3192 251.052 82.3437 251.175 82.3928 251.259C82.4419 251.34 82.5052 251.395 82.5826 251.426C82.6619 251.454 82.7478 251.468 82.8403 251.468C82.9083 251.468 82.9678 251.463 83.0187 251.454C83.0697 251.445 83.1094 251.437 83.1377 251.431L83.2906 252.131C83.2415 252.15 83.1717 252.169 83.081 252.187C82.9904 252.208 82.8771 252.22 82.7412 252.221C82.5184 252.225 82.3107 252.186 82.1181 252.103C81.9255 252.019 81.7698 251.891 81.6508 251.717C81.5319 251.544 81.4724 251.326 81.4724 251.063V246.772ZM86.9037 250.361V247.815H87.7533V252.165H86.9207V251.411H86.8754C86.7753 251.644 86.6148 251.837 86.3939 251.992C86.1749 252.145 85.9021 252.221 85.5754 252.221C85.296 252.221 85.0486 252.16 84.8334 252.037C84.6201 251.913 84.452 251.729 84.3293 251.485C84.2085 251.242 84.148 250.94 84.148 250.582V247.815H84.9948V250.48C84.9948 250.776 85.077 251.012 85.2412 251.188C85.4055 251.363 85.6188 251.451 85.8813 251.451C86.0399 251.451 86.1975 251.411 86.3543 251.332C86.5129 251.253 86.6441 251.133 86.7479 250.973C86.8536 250.812 86.9056 250.608 86.9037 250.361ZM88.8911 252.165V247.815H89.7096V248.506H89.7549C89.8342 248.272 89.9739 248.088 90.1741 247.953C90.3761 247.818 90.6045 247.75 90.8594 247.75C90.9123 247.75 90.9746 247.751 91.0464 247.755C91.12 247.759 91.1776 247.764 91.2191 247.769V248.579C91.1851 248.57 91.1247 248.56 91.0379 248.548C90.951 248.535 90.8642 248.528 90.7773 248.528C90.5772 248.528 90.3987 248.571 90.242 248.656C90.0872 248.739 89.9645 248.855 89.8739 249.004C89.7832 249.151 89.7379 249.319 89.7379 249.508V252.165H88.8911ZM93.1789 252.261C92.9033 252.261 92.6541 252.21 92.4313 252.108C92.2085 252.004 92.0319 251.854 91.9017 251.658C91.7733 251.462 91.7091 251.221 91.7091 250.936C91.7091 250.69 91.7563 250.488 91.8507 250.33C91.9451 250.171 92.0725 250.045 92.233 249.953C92.3935 249.86 92.5729 249.791 92.7711 249.743C92.9694 249.696 93.1714 249.66 93.3772 249.636C93.6377 249.606 93.8492 249.581 94.0116 249.562C94.174 249.541 94.292 249.508 94.3656 249.463C94.4392 249.418 94.476 249.344 94.476 249.242V249.222C94.476 248.975 94.4062 248.783 94.2665 248.647C94.1286 248.511 93.9228 248.443 93.6491 248.443C93.364 248.443 93.1393 248.507 92.975 248.633C92.8127 248.758 92.7003 248.897 92.638 249.05L91.8422 248.868C91.9366 248.604 92.0744 248.391 92.2557 248.228C92.4388 248.064 92.6493 247.945 92.8872 247.871C93.1251 247.796 93.3753 247.758 93.6377 247.758C93.8114 247.758 93.9955 247.779 94.19 247.82C94.3864 247.86 94.5695 247.934 94.7394 248.041C94.9112 248.149 95.0519 248.303 95.1614 248.503C95.2709 248.701 95.3257 248.959 95.3257 249.276V252.165H94.4987V251.57H94.4647C94.41 251.68 94.3278 251.787 94.2183 251.893C94.1088 251.999 93.9682 252.086 93.7963 252.156C93.6245 252.226 93.4187 252.261 93.1789 252.261ZM93.363 251.581C93.5971 251.581 93.7973 251.535 93.9634 251.443C94.1315 251.35 94.2589 251.229 94.3458 251.08C94.4345 250.929 94.4789 250.768 94.4789 250.596V250.035C94.4487 250.065 94.3901 250.094 94.3033 250.12C94.2183 250.145 94.1211 250.166 94.0116 250.185C93.9021 250.202 93.7954 250.218 93.6916 250.233C93.5877 250.247 93.5009 250.258 93.431 250.267C93.2667 250.288 93.1166 250.323 92.9807 250.372C92.8466 250.421 92.739 250.492 92.6578 250.585C92.5785 250.675 92.5389 250.796 92.5389 250.947C92.5389 251.157 92.6163 251.315 92.7711 251.423C92.9259 251.529 93.1232 251.581 93.363 251.581ZM97.3004 246.365V252.165H96.4536V246.365H97.3004Z" fill="#19171C"/>
<path d="M151.092 239.257H131.461V258.888H151.092V239.257Z" fill="#F2F1F3" fill-opacity="0.35"/>
<path d="M137.594 247.028V247.846H141.684V247.028H137.594ZM139.23 249.482V250.3H137.594V251.118H139.23V251.936H140.048V249.482H139.23ZM144.956 251.118V250.3H140.866V251.118H144.956ZM142.502 248.664H143.32V247.846H144.956V247.028H143.32V246.21H142.502V248.664Z" fill="#19171C"/>
<path d="M11.9219 252.165V246.365H15.4224V246.988H12.6243V248.947H15.2412V249.571H12.6243V251.542H15.4677V252.165H11.9219ZM17.8779 252.267C17.6022 252.267 17.352 252.215 17.1274 252.111C16.9027 252.005 16.7243 251.853 16.5921 251.655C16.4599 251.455 16.3938 251.213 16.3938 250.93C16.3938 250.681 16.4429 250.479 16.5411 250.324C16.6393 250.167 16.7705 250.044 16.9348 249.956C17.099 249.867 17.2803 249.801 17.4785 249.757C17.6787 249.712 17.8798 249.676 18.0818 249.65C18.3461 249.616 18.5604 249.59 18.7247 249.573C18.8908 249.554 19.0117 249.523 19.0872 249.48C19.1646 249.436 19.2033 249.361 19.2033 249.253V249.231C19.2033 248.951 19.1268 248.734 18.9739 248.579C18.8229 248.424 18.5935 248.347 18.2857 248.347C17.9666 248.347 17.7164 248.417 17.5352 248.557C17.3539 248.696 17.2265 248.845 17.1528 249.004L16.5185 248.778C16.6317 248.513 16.7828 248.307 16.9716 248.16C17.1623 248.011 17.37 247.907 17.5947 247.849C17.8212 247.788 18.044 247.758 18.263 247.758C18.4028 247.758 18.5632 247.775 18.7445 247.809C18.9276 247.841 19.1042 247.908 19.2741 248.01C19.4459 248.112 19.5885 248.266 19.7018 248.472C19.815 248.677 19.8717 248.953 19.8717 249.299V252.165H19.2033V251.576H19.1693C19.124 251.67 19.0485 251.771 18.9427 251.879C18.837 251.986 18.6964 252.078 18.5208 252.153C18.3452 252.229 18.1309 252.267 17.8779 252.267ZM17.9798 251.666C18.2442 251.666 18.4669 251.614 18.6482 251.511C18.8313 251.407 18.9692 251.273 19.0617 251.108C19.1561 250.944 19.2033 250.771 19.2033 250.59V249.978C19.175 250.012 19.1127 250.043 19.0164 250.072C18.922 250.098 18.8125 250.122 18.6879 250.143C18.5651 250.161 18.4452 250.178 18.3282 250.194C18.213 250.207 18.1195 250.218 18.0478 250.228C17.8741 250.25 17.7117 250.287 17.5607 250.338C17.4115 250.387 17.2907 250.462 17.1982 250.562C17.1075 250.66 17.0622 250.794 17.0622 250.964C17.0622 251.196 17.1481 251.372 17.3199 251.491C17.4936 251.608 17.7136 251.666 17.9798 251.666ZM24.1729 248.789L23.5725 248.959C23.5348 248.859 23.4791 248.761 23.4054 248.667C23.3337 248.571 23.2355 248.491 23.1109 248.429C22.9863 248.367 22.8268 248.336 22.6323 248.336C22.3661 248.336 22.1442 248.397 21.9667 248.52C21.7911 248.641 21.7033 248.795 21.7033 248.981C21.7033 249.148 21.7638 249.279 21.8846 249.375C22.0054 249.471 22.1942 249.552 22.451 249.616L23.0967 249.774C23.4857 249.869 23.7755 250.013 23.9662 250.208C24.1569 250.4 24.2522 250.649 24.2522 250.953C24.2522 251.202 24.1805 251.425 24.037 251.621C23.8954 251.817 23.6972 251.972 23.4423 252.085C23.1874 252.199 22.8909 252.255 22.553 252.255C22.1093 252.255 21.7421 252.159 21.4513 251.966C21.1605 251.774 20.9764 251.493 20.899 251.123L21.5334 250.964C21.5938 251.198 21.7081 251.374 21.8761 251.491C22.046 251.608 22.2679 251.666 22.5417 251.666C22.8532 251.666 23.1005 251.6 23.2837 251.468C23.4687 251.334 23.5612 251.173 23.5612 250.987C23.5612 250.836 23.5083 250.709 23.4026 250.607C23.2969 250.503 23.1345 250.426 22.9155 250.375L22.1905 250.205C21.7921 250.111 21.4994 249.964 21.3125 249.766C21.1275 249.566 21.035 249.316 21.035 249.015C21.035 248.77 21.1039 248.553 21.2417 248.364C21.3814 248.175 21.5712 248.027 21.811 247.919C22.0526 247.812 22.3264 247.758 22.6323 247.758C23.0628 247.758 23.4007 247.852 23.6462 248.041C23.8935 248.23 24.0691 248.479 24.1729 248.789ZM25.2584 252.165V247.815H25.9267V252.165H25.2584ZM25.5982 247.09C25.4679 247.09 25.3556 247.045 25.2612 246.956C25.1687 246.868 25.1224 246.761 25.1224 246.636C25.1224 246.512 25.1687 246.405 25.2612 246.316C25.3556 246.228 25.4679 246.183 25.5982 246.183C25.7285 246.183 25.8399 246.228 25.9324 246.316C26.0268 246.405 26.074 246.512 26.074 246.636C26.074 246.761 26.0268 246.868 25.9324 246.956C25.8399 247.045 25.7285 247.09 25.5982 247.09ZM27.8193 249.548V252.165H27.1509V247.815H27.7966V248.494H27.8533C27.9552 248.273 28.1101 248.096 28.3177 247.962C28.5254 247.826 28.7935 247.758 29.1221 247.758C29.4166 247.758 29.6743 247.818 29.8952 247.939C30.1161 248.058 30.288 248.239 30.4107 248.483C30.5334 248.725 30.5948 249.031 30.5948 249.401V252.165H29.9264V249.446C29.9264 249.104 29.8376 248.838 29.6602 248.647C29.4827 248.455 29.2391 248.358 28.9295 248.358C28.7161 248.358 28.5254 248.405 28.3574 248.497C28.1912 248.59 28.06 248.725 27.9637 248.902C27.8674 249.08 27.8193 249.295 27.8193 249.548ZM33.572 253.887C33.2492 253.887 32.9716 253.845 32.7394 253.762C32.5072 253.681 32.3136 253.573 32.1588 253.439C32.0059 253.307 31.8841 253.165 31.7935 253.014L32.3259 252.641C32.3863 252.72 32.4628 252.81 32.5553 252.912C32.6478 253.016 32.7743 253.106 32.9348 253.181C33.0972 253.259 33.3096 253.298 33.572 253.298C33.9232 253.298 34.213 253.213 34.4415 253.043C34.6699 252.873 34.7842 252.607 34.7842 252.244V251.36H34.7275C34.6784 251.44 34.6086 251.538 34.518 251.655C34.4292 251.77 34.3008 251.873 34.1328 251.964C33.9666 252.052 33.742 252.097 33.4587 252.097C33.1076 252.097 32.7922 252.014 32.5128 251.848C32.2353 251.681 32.0153 251.44 31.8529 251.123C31.6924 250.805 31.6122 250.42 31.6122 249.967C31.6122 249.521 31.6906 249.133 31.8473 248.803C32.004 248.471 32.2221 248.214 32.5015 248.033C32.7809 247.85 33.1038 247.758 33.4701 247.758C33.7533 247.758 33.978 247.805 34.1441 247.9C34.3122 247.992 34.4405 248.098 34.5293 248.217C34.6199 248.334 34.6898 248.43 34.7389 248.506H34.8068V247.815H35.4525V252.289C35.4525 252.663 35.3676 252.967 35.1977 253.201C35.0296 253.437 34.8031 253.61 34.518 253.72C34.2347 253.831 33.9194 253.887 33.572 253.887ZM33.5494 251.496C33.8175 251.496 34.044 251.435 34.2291 251.312C34.4141 251.19 34.5548 251.013 34.6511 250.783C34.7474 250.552 34.7955 250.277 34.7955 249.956C34.7955 249.642 34.7483 249.366 34.6539 249.126C34.5595 248.886 34.4198 248.698 34.2347 248.562C34.0497 248.426 33.8213 248.358 33.5494 248.358C33.2662 248.358 33.0301 248.43 32.8413 248.574C32.6544 248.717 32.5138 248.91 32.4194 249.151C32.3268 249.393 32.2806 249.661 32.2806 249.956C32.2806 250.258 32.3278 250.525 32.4222 250.757C32.5185 250.988 32.6601 251.169 32.847 251.301C33.0358 251.431 33.2699 251.496 33.5494 251.496Z" fill="#97979B"/>
</g>
<mask id="mask8_827_117" style="mask-type:luminance" maskUnits="userSpaceOnUse" x="0" y="0" width="157" height="560">
<path d="M156.402 0H0.402344V560H156.402V0Z" fill="white"/>
<path d="M1.40234 0H155.999V560H1.40234V0Z" fill="black"/>
</mask>
<g mask="url(#mask8_827_117)">
<path d="M2 560V1H0V560H2Z" fill="#E5E4E7"/>
</g>
</g>
<defs>
<clipPath id="clip0_827_117">
<rect width="156" height="560" fill="white"/>
</clipPath>
</defs>
</svg>
