<svg width="141" height="48" viewBox="0 0 141 48" fill="none" xmlns="http://www.w3.org/2000/svg">
<path d="M31.6398 20.957C31.6196 20.721 31.5457 20.4928 31.4239 20.2897C31.302 20.0866 31.1355 19.914 30.9368 19.785C30.5248 19.505 30.0068 19.364 29.3808 19.364C28.9338 19.364 28.5468 19.435 28.2198 19.577C27.8928 19.716 27.6398 19.907 27.4578 20.152C27.2812 20.3908 27.1878 20.681 27.1918 20.978C27.1918 21.238 27.2518 21.461 27.3728 21.649C27.4968 21.837 27.6588 21.995 27.8578 22.123C28.0598 22.247 28.2768 22.353 28.5078 22.437C28.7378 22.519 28.9598 22.587 29.1728 22.64L30.2388 22.917C30.5868 23.002 30.9438 23.117 31.3088 23.263C31.6748 23.409 32.0138 23.6 32.3268 23.838C32.6388 24.076 32.8908 24.371 33.0828 24.723C33.2778 25.074 33.3758 25.495 33.3758 25.985C33.3758 26.603 33.2158 27.152 32.8958 27.631C32.5808 28.111 32.1208 28.489 31.5168 28.766C30.9168 29.043 30.1908 29.181 29.3388 29.181C28.5218 29.181 27.8148 29.051 27.2188 28.792C26.6218 28.533 26.1548 28.165 25.8178 27.69C25.4798 27.21 25.2938 26.642 25.2578 25.985H26.9098C26.9408 26.379 27.0698 26.708 27.2928 26.971C27.5198 27.23 27.8098 27.423 28.1608 27.551C28.5168 27.675 28.9048 27.738 29.3278 27.738C29.7928 27.738 30.2068 27.665 30.5688 27.519C30.9051 27.3911 31.2024 27.1782 31.4318 26.901C31.6418 26.635 31.7458 26.324 31.7458 25.969C31.7458 25.646 31.6538 25.381 31.4688 25.175C31.263 24.9523 31.0102 24.7781 30.7288 24.665C30.3885 24.519 30.0375 24.3993 29.6788 24.307L28.3898 23.956C27.5168 23.718 26.8238 23.368 26.3128 22.906C25.8048 22.445 25.5508 21.834 25.5508 21.074C25.5508 20.445 25.7208 19.897 26.0628 19.428C26.4028 18.959 26.8648 18.595 27.4478 18.336C28.0298 18.073 28.6868 17.942 29.4178 17.942C30.1578 17.942 30.8078 18.072 31.3728 18.331C31.9418 18.59 32.3888 18.947 32.7158 19.401C33.0431 19.8543 33.2217 20.398 33.2268 20.957H31.6398ZM36.8078 24.142V29H35.2148V18.09H36.7868V22.15H36.8868C37.0798 21.71 37.3728 21.36 37.7668 21.1C38.1608 20.841 38.6758 20.712 39.3108 20.712C39.8728 20.712 40.3628 20.827 40.7808 21.058C41.2038 21.288 41.5308 21.633 41.7608 22.091C41.9958 22.546 42.1128 23.114 42.1128 23.796V29H40.5218V23.988C40.5218 23.388 40.3668 22.922 40.0578 22.592C39.7488 22.258 39.3198 22.092 38.7688 22.092C38.3928 22.092 38.0548 22.172 37.7568 22.331C37.4618 22.491 37.2298 22.725 37.0588 23.034C36.8918 23.34 36.8078 23.709 36.8078 24.142ZM47.6848 29.165C46.9178 29.165 46.2488 28.989 45.6768 28.638C45.1015 28.2826 44.6395 27.7706 44.3448 27.162C44.0288 26.53 43.8708 25.792 43.8708 24.946C43.8708 24.098 44.0288 23.356 44.3448 22.72C44.6384 22.1094 45.1006 21.5955 45.6768 21.239C46.2488 20.887 46.9178 20.712 47.6848 20.712C48.4518 20.712 49.1218 20.887 49.6928 21.239C50.2689 21.5951 50.7311 22.1087 51.0248 22.719C51.3408 23.355 51.4988 24.098 51.4988 24.946C51.4988 25.791 51.3408 26.53 51.0248 27.162C50.7302 27.7707 50.2682 28.2827 49.6928 28.638C49.1208 28.989 48.4528 29.165 47.6848 29.165ZM47.6898 27.828C48.1868 27.828 48.5998 27.697 48.9258 27.434C49.2528 27.171 49.4938 26.821 49.6508 26.384C49.8108 25.948 49.8908 25.467 49.8908 24.941C49.8908 24.419 49.8108 23.94 49.6508 23.503C49.5126 23.0891 49.2615 22.7219 48.9258 22.443C48.5988 22.176 48.1868 22.043 47.6898 22.043C47.1898 22.043 46.7738 22.177 46.4438 22.443C46.1077 22.7226 45.8552 23.0893 45.7138 23.503C45.5535 23.9653 45.4743 24.4518 45.4798 24.941C45.4798 25.467 45.5578 25.948 45.7138 26.385C45.8738 26.821 46.1168 27.171 46.4438 27.434C46.7738 27.697 47.1898 27.828 47.6898 27.828ZM54.8018 29L52.3948 20.818H54.0408L55.6438 26.827H55.7238L57.3328 20.818H58.9788L60.5768 26.8H60.6568L62.2488 20.818H63.8948L61.4918 29H59.8668L58.2048 23.093H58.0828L56.4208 29H54.8018ZM65.4068 29V20.818H66.9468V22.118H67.0308C67.1808 21.678 67.4428 21.331 67.8198 21.079C68.1998 20.823 68.6298 20.696 69.1088 20.696C69.3346 20.6971 69.5602 20.7095 69.7848 20.733V22.256C69.6728 22.2298 69.5592 22.2104 69.4448 22.198C69.2827 22.173 69.1189 22.1603 68.9548 22.16C68.5778 22.16 68.2418 22.24 67.9478 22.4C67.657 22.5537 67.4144 22.785 67.2469 23.0681C67.0794 23.3512 66.9935 23.6751 66.9988 24.004V29H65.4068ZM74.3968 29.165C73.5908 29.165 72.8968 28.993 72.3138 28.648C71.7346 28.2997 71.2686 27.7912 70.9718 27.184C70.6588 26.551 70.5028 25.811 70.5028 24.962C70.5028 24.124 70.6588 23.386 70.9718 22.746C71.2639 22.1341 71.7211 21.616 72.2918 21.25C72.8608 20.891 73.5248 20.712 74.2848 20.712C74.7468 20.712 75.1948 20.788 75.6268 20.941C76.0625 21.095 76.4604 21.3401 76.7938 21.66C77.1378 21.986 77.4098 22.41 77.6088 22.933C77.8078 23.451 77.9068 24.082 77.9068 24.823V25.389H71.4018V24.195H76.3448C76.3448 23.776 76.2598 23.405 76.0898 23.082C75.9261 22.7628 75.6768 22.4955 75.3698 22.31C75.0452 22.1165 74.6726 22.0184 74.2948 22.027C73.8468 22.027 73.4558 22.137 73.1228 22.357C72.7928 22.574 72.5368 22.858 72.3558 23.21C72.1773 23.5612 72.0857 23.9501 72.0888 24.344V25.277C72.0888 25.823 72.1848 26.289 72.3768 26.672C72.5718 27.056 72.8438 27.349 73.1918 27.552C73.5398 27.75 73.9468 27.849 74.4118 27.849C74.7138 27.849 74.9888 27.807 75.2368 27.722C75.4801 27.6395 75.7018 27.5032 75.8853 27.3234C76.0688 27.1435 76.2094 26.9246 76.2968 26.683L77.8048 26.954C77.6881 27.3908 77.4648 27.7918 77.1548 28.121C76.829 28.4628 76.4305 28.727 75.9888 28.894C75.5228 29.074 74.9928 29.165 74.3968 29.165ZM83.1998 29.165C82.3938 29.165 81.6998 28.993 81.1178 28.648C80.5383 28.2998 80.0719 27.7913 79.7748 27.184C79.4628 26.551 79.3068 25.811 79.3068 24.962C79.3068 24.124 79.4628 23.386 79.7748 22.746C80.0674 22.1339 80.5253 21.6157 81.0968 21.25C81.6648 20.891 82.3288 20.712 83.0888 20.712C83.5498 20.712 83.9978 20.788 84.4308 20.941C84.8661 21.0951 85.2636 21.3402 85.5968 21.66C85.9418 21.986 86.2138 22.41 86.4128 22.933C86.6108 23.451 86.7108 24.082 86.7108 24.823V25.389H80.2068V24.195H85.1498C85.1498 23.776 85.0648 23.405 84.8938 23.082C84.7304 22.763 84.4815 22.4957 84.1748 22.31C83.85 22.1162 83.477 22.0181 83.0988 22.027C82.6518 22.027 82.2608 22.137 81.9268 22.357C81.5968 22.574 81.3408 22.858 81.1598 23.21C80.9816 23.5613 80.8904 23.9502 80.8938 24.344V25.277C80.8938 25.823 80.9898 26.289 81.1818 26.672C81.3768 27.056 81.6488 27.349 81.9968 27.552C82.3448 27.75 82.7508 27.849 83.2168 27.849C83.5178 27.849 83.7938 27.807 84.0418 27.722C84.2851 27.6395 84.5068 27.5032 84.6903 27.3234C84.8738 27.1435 85.0144 26.9246 85.1018 26.683L86.6098 26.954C86.4931 27.3908 86.2698 27.7918 85.9598 28.121C85.6337 28.4629 85.2349 28.7271 84.7928 28.894C84.3278 29.074 83.7968 29.165 83.1998 29.165ZM90.0698 18.091V29H88.4778V18.09H90.0708L90.0698 18.091ZM100.322 25.463H101.941L103.081 26.949L103.619 27.609L105.436 29.98H103.752L102.538 28.398L102.122 27.823L100.322 25.463ZM105.787 23.545C105.787 24.71 105.574 25.712 105.148 26.55C104.722 27.384 104.138 28.027 103.395 28.478C102.657 28.925 101.817 29.149 100.876 29.149C99.9308 29.149 99.0878 28.925 98.3458 28.478C97.6068 28.027 97.0248 27.382 96.5978 26.544C96.1718 25.706 95.9588 24.707 95.9588 23.546C95.9588 22.381 96.1718 21.381 96.5988 20.546C97.0248 19.709 97.6068 19.066 98.3458 18.618C99.0878 18.168 99.9308 17.942 100.876 17.942C101.817 17.942 102.657 18.167 103.395 18.618C104.138 19.066 104.722 19.708 105.148 20.547C105.574 21.381 105.787 22.381 105.787 23.545ZM104.157 23.545C104.157 22.658 104.013 21.91 103.726 21.303C103.442 20.693 103.051 20.23 102.554 19.918C102.053 19.5998 101.469 19.4351 100.876 19.444C100.247 19.444 99.6858 19.602 99.1928 19.918C98.6988 20.231 98.3078 20.692 98.0208 21.303C97.7368 21.91 97.5948 22.658 97.5948 23.545C97.5948 24.433 97.7368 25.182 98.0208 25.793C98.3078 26.401 98.6988 26.863 99.1928 27.178C99.6968 27.4935 100.281 27.6564 100.876 27.647C101.501 27.647 102.06 27.491 102.554 27.178C103.051 26.862 103.442 26.401 103.726 25.793C104.013 25.183 104.157 24.432 104.157 23.545ZM107.461 26.869V25.538L112.175 18.091H113.225V20.051H112.559L109.187 25.389V25.474H115.648V26.869H107.461ZM112.632 29V26.465L112.643 25.857V18.091H114.204V29H112.632Z" fill="white"/>
<path d="M124.705 22.295L127 24.585L129.295 22.295L130 23L127 26L124 23L124.705 22.295Z" fill="#97979B"/>
</svg>
