<svg width="335" height="48" viewBox="0 0 335 48" fill="none" xmlns="http://www.w3.org/2000/svg">
<path fill-rule="evenodd" clip-rule="evenodd" d="M23.4139 25L26.7069 28.293L25.2929 29.707L19.5859 24L25.2929 18.293L26.7069 19.707L23.4139 23H34.9999V25H23.4139ZM302 17L314 14V29C314 29.6368 313.797 30.2569 313.421 30.7707C313.044 31.2844 312.514 31.6652 311.908 31.8578C311.301 32.0505 310.648 32.045 310.045 31.8422C309.441 31.6394 308.917 31.2498 308.55 30.7298C308.182 30.2098 307.99 29.5864 308 28.9497C308.011 28.313 308.223 27.6961 308.608 27.1883C308.992 26.6805 309.528 26.3082 310.137 26.1251C310.747 25.942 311.4 25.9577 312 26.17V18L304 20V31C304 31.6368 303.797 32.2569 303.421 32.7707C303.044 33.2844 302.514 33.6652 301.908 33.8578C301.301 34.0505 300.648 34.045 300.045 33.8422C299.441 33.6394 298.917 33.2498 298.55 32.7298C298.182 32.2098 297.99 31.5864 298 30.9497C298.011 30.313 298.223 29.6961 298.608 29.1883C298.992 28.6805 299.528 28.3082 300.137 28.1251C300.747 27.942 301.4 27.9577 302 28.17V17Z" fill="white"/>
<path d="M76 18V16H90V20H88V18H84V30H86V32H80V30H82V18H78V20H76V18Z" fill="white"/>
<path fill-rule="evenodd" clip-rule="evenodd" d="M148 16H130V32H148V16ZM146 18H132V30H146V18Z" fill="white"/>
<path d="M195 31C198.866 31 202 27.866 202 24C202 20.134 198.866 17 195 17C191.134 17 188 20.134 188 24C188 27.866 191.134 31 195 31Z" stroke="white" stroke-width="2"/>
<path fill-rule="evenodd" clip-rule="evenodd" d="M260 16H242V32H260V16ZM258 18H244V27L247 24L252 29L255 26L258 29V18Z" fill="white"/>
<path d="M256 22C256 22.5304 255.789 23.0391 255.414 23.4142C255.039 23.7893 254.53 24 254 24C253.47 24 252.961 23.7893 252.586 23.4142C252.211 23.0391 252 22.5304 252 22C252 21.4696 252.211 20.9609 252.586 20.5858C252.961 20.2107 253.47 20 254 20C254.53 20 255.039 20.2107 255.414 20.5858C255.789 20.9609 256 21.4696 256 22Z" fill="white"/>
</svg>
