<svg width="82" height="28" viewBox="0 0 82 28" fill="none" xmlns="http://www.w3.org/2000/svg">
<g clip-path="url(#clip0_824_2)">
<path d="M8.214 27.812C3.805 27.812 0 25.148 0 19.744H4.37C4.37 22.292 6.18 23.604 8.214 23.604C10.211 23.604 11.982 22.408 11.982 19.436V0H16.392V19.821C16.391 25.496 12.51 27.812 8.214 27.812ZM22.437 5.686C20.93 5.686 19.649 4.412 19.649 2.83C19.649 1.286 20.93 0.012 22.437 0.012C23.982 0.012 25.187 1.286 25.187 2.83C25.187 4.412 23.982 5.686 22.437 5.686ZM20.365 8.239H24.51V27.687H20.365V8.239ZM34.989 27.763C31.371 27.763 28.546 25.717 28.546 21.355V2.905H32.691V8.27H37.251V12.053H32.691V20.66C32.691 23.053 33.708 23.902 35.856 23.902C36.647 23.902 37.476 23.786 38.079 23.555V27.338C37.249 27.608 36.27 27.763 34.989 27.763ZM46.149 27.763C42.532 27.763 39.707 25.717 39.707 21.355V2.905H43.852V8.27H49.205V12.053H43.852V20.66C43.852 23.053 44.869 23.902 47.017 23.902C47.808 23.902 48.637 23.786 49.24 23.555V27.338C48.41 27.608 47.43 27.763 46.15 27.763H46.149ZM59.686 7.93C64.622 7.93 68.767 11.287 68.767 17.502C68.767 17.927 68.767 18.274 68.73 18.891H53.92C54.108 22.056 56.595 24.141 59.723 24.141C62.36 24.141 64.132 22.905 65.111 21.207L68.277 23.523C66.582 26.263 63.643 28 59.686 28C53.959 28 49.852 23.831 49.852 17.964C49.852 12.291 53.959 7.93 59.686 7.93ZM54.109 15.803H64.584C64.132 13.024 61.947 11.519 59.534 11.519C57.122 11.519 54.674 12.947 54.109 15.803ZM71.261 8.344H75.406V11.779C76.122 9.579 78.232 8.151 80.38 8.151C80.907 8.151 81.435 8.189 82 8.305V12.667C81.284 12.437 80.681 12.32 79.927 12.32C77.553 12.32 75.406 14.366 75.406 18.226V27.644H71.261V8.344Z" fill="black"/>
</g>
<defs>
<clipPath id="clip0_824_2">
<rect width="82" height="28" fill="white"/>
</clipPath>
</defs>
</svg>
